<svg xmlns="http://www.w3.org/2000/svg" viewBox="0 0 327 292" fill="none" stroke="white" stroke-width="20">
<path d="M 18,192 Z" />
<path d="M 276,161 Z" />
<path d="M 49,161 Z" />
<path d="M 183,153 Z" />
<path d="M 142,153 Z" />
<path d="M 251,136 Z" />
<path d="M 74,136 Z" />
<path d="M 226,80 Z" />
<path d="M 208,80 Z" />
<path d="M 117,80 Z" />
<path d="M 99,80 Z" />
<path d="M 297,32 L 296,33 L 294,33 L 293,34 L 292,34 L 291,35 L 290,35 L 288,37 L 287,37 L 283,41 L 283,42 L 281,44 L 281,45 L 280,46 L 280,47 L 279,48 L 279,51 L 278,52 L 278,162 L 277,163 L 216,163 L 215,164 L 213,164 L 212,165 L 211,165 L 210,166 L 209,166 L 207,168 L 206,168 L 202,172 L 202,173 L 200,175 L 200,176 L 199,177 L 199,178 L 198,179 L 198,181 L 197,182 L 197,284 L 198,285 L 198,286 L 199,287 L 200,287 L 201,288 L 230,288 L 231,287 L 232,287 L 234,285 L 234,208 L 235,207 L 283,207 L 284,208 L 284,283 L 285,284 L 285,285 L 287,287 L 288,287 L 289,288 L 318,288 L 322,284 L 322,36 L 321,35 L 321,34 L 319,32 Z" />
<path d="M 7,32 L 5,34 L 4,34 L 4,35 L 3,36 L 3,284 L 7,288 L 36,288 L 37,287 L 38,287 L 40,285 L 40,284 L 41,283 L 41,208 L 42,207 L 90,207 L 91,208 L 91,285 L 93,287 L 94,287 L 95,288 L 124,288 L 125,287 L 126,287 L 127,286 L 127,285 L 128,284 L 128,183 L 127,182 L 127,179 L 126,178 L 126,177 L 125,176 L 125,175 L 122,172 L 122,171 L 120,169 L 119,169 L 117,167 L 116,167 L 114,165 L 112,165 L 111,164 L 108,164 L 107,163 L 48,163 L 47,162 L 47,127 L 46,126 L 46,125 L 44,123 L 42,123 L 41,122 L 40,122 L 39,123 L 38,123 L 37,124 L 36,124 L 35,125 L 35,126 L 34,127 L 34,171 L 35,172 L 35,173 L 37,175 L 38,175 L 39,176 L 107,176 L 108,177 L 109,177 L 114,182 L 114,183 L 115,184 L 115,186 L 116,187 L 116,193 L 115,194 L 17,194 L 16,193 L 16,46 L 17,45 L 26,45 L 27,46 L 28,46 L 33,51 L 33,52 L 34,53 L 34,105 L 35,106 L 35,107 L 38,110 L 43,110 L 45,108 L 46,108 L 46,107 L 47,106 L 47,52 L 46,51 L 46,49 L 45,48 L 45,46 L 44,45 L 44,44 L 41,41 L 41,40 L 39,38 L 38,38 L 35,35 L 34,35 L 33,34 L 31,34 L 30,33 L 28,33 L 27,32 Z" />
<path d="M 76,19 L 75,20 L 74,20 L 73,21 L 73,22 L 72,23 L 72,55 L 73,56 L 73,58 L 74,59 L 74,60 L 76,62 L 76,63 L 78,65 L 79,65 L 81,67 L 82,67 L 84,69 L 84,81 L 83,82 L 79,82 L 78,83 L 76,83 L 75,84 L 74,84 L 73,85 L 72,85 L 71,86 L 70,86 L 63,93 L 63,94 L 62,95 L 62,96 L 61,97 L 61,98 L 60,99 L 60,102 L 59,103 L 59,146 L 60,147 L 60,148 L 62,150 L 63,150 L 64,151 L 143,151 L 144,152 L 144,284 L 145,285 L 145,286 L 146,287 L 147,287 L 148,288 L 177,288 L 178,287 L 179,287 L 180,286 L 180,285 L 181,284 L 181,152 L 182,151 L 201,151 L 202,150 L 203,150 L 204,149 L 205,149 L 205,148 L 206,147 L 206,142 L 205,141 L 205,140 L 204,139 L 203,139 L 202,138 L 73,138 L 72,137 L 72,104 L 73,103 L 73,101 L 78,96 L 79,96 L 80,95 L 245,95 L 246,96 L 247,96 L 252,101 L 252,103 L 253,104 L 253,137 L 252,138 L 223,138 L 222,139 L 221,139 L 220,140 L 220,141 L 219,142 L 219,147 L 220,148 L 220,149 L 221,149 L 222,150 L 223,150 L 224,151 L 261,151 L 262,150 L 263,150 L 265,148 L 265,147 L 266,146 L 266,103 L 265,102 L 265,99 L 264,98 L 264,97 L 263,96 L 263,95 L 262,94 L 262,93 L 255,86 L 254,86 L 253,85 L 252,85 L 251,84 L 250,84 L 249,83 L 247,83 L 246,82 L 242,82 L 241,81 L 241,69 L 243,67 L 244,67 L 247,64 L 248,64 L 249,63 L 249,62 L 251,60 L 251,59 L 252,58 L 252,56 L 253,55 L 253,23 L 252,22 L 252,21 L 251,20 L 250,20 L 249,19 L 220,19 L 219,20 L 218,20 L 216,22 L 216,56 L 217,57 L 217,58 L 218,59 L 218,60 L 219,61 L 219,62 L 222,65 L 223,65 L 225,67 L 226,67 L 227,68 L 226,69 L 227,68 L 228,69 L 228,81 L 227,82 L 207,82 L 206,81 L 206,73 L 205,72 L 205,70 L 204,69 L 204,66 L 203,65 L 203,64 L 202,63 L 202,62 L 201,61 L 201,60 L 199,58 L 199,57 L 197,55 L 197,54 L 190,47 L 189,47 L 187,45 L 186,45 L 184,43 L 183,43 L 182,42 L 181,42 L 180,41 L 178,41 L 177,40 L 175,40 L 174,39 L 171,39 L 169,37 L 169,30 L 168,29 L 168,28 L 166,26 L 165,26 L 164,25 L 161,25 L 160,26 L 159,26 L 157,28 L 157,29 L 156,30 L 156,37 L 154,39 L 151,39 L 150,40 L 148,40 L 147,41 L 145,41 L 144,42 L 143,42 L 142,43 L 141,43 L 139,45 L 138,45 L 136,47 L 135,47 L 128,54 L 128,55 L 126,57 L 126,58 L 124,60 L 124,61 L 123,62 L 123,63 L 122,64 L 122,65 L 121,66 L 121,69 L 120,70 L 120,72 L 119,73 L 119,81 L 118,82 L 98,82 L 97,81 L 97,69 L 98,68 L 99,69 L 98,68 L 99,67 L 100,67 L 102,65 L 103,65 L 106,62 L 106,61 L 107,60 L 107,59 L 108,58 L 108,57 L 109,56 L 109,22 L 107,20 L 106,20 L 105,19 Z" />
</svg>