<svg width="25" height="24" viewBox="0 0 25 24" fill="none" xmlns="http://www.w3.org/2000/svg">
<path d="M4.5 4H6.12563C6.693 4 6.97669 4 7.20214 4.12433C7.29511 4.17561 7.37933 4.24136 7.45162 4.31912C7.62692 4.50769 7.69573 4.7829 7.83333 5.33333L8.01493 6.05972C8.116 6.46402 8.16654 6.66617 8.24455 6.83576C8.51534 7.42449 9.0546 7.84553 9.69144 7.96546C9.87488 8 10.0833 8 10.5 8V8" stroke="white" stroke-width="2" strokeLinecap="round"/>
<path d="M18.5 17H8.05091C7.90471 17 7.83162 17 7.77616 16.9938C7.18857 16.928 6.78605 16.3695 6.90945 15.7913C6.92109 15.7367 6.94421 15.6674 6.99044 15.5287V15.5287C7.04177 15.3747 7.06743 15.2977 7.09579 15.2298C7.38607 14.5342 8.04277 14.0608 8.79448 14.0054C8.8679 14 8.94906 14 9.11137 14H14.5" stroke="white" stroke-width="2" strokeLinecap="round" strokeLinejoin="round"/>
<path d="M15.0279 14H11.4743C10.2584 14 9.65042 14 9.18147 13.7246C8.98343 13.6083 8.80689 13.4588 8.65961 13.2825C8.31087 12.8652 8.21092 12.2655 8.01103 11.0662C7.80849 9.85093 7.70722 9.2433 7.94763 8.79324C8.04799 8.60536 8.18722 8.44101 8.35604 8.31113C8.76045 8 9.37646 8 10.6085 8H17.2639C18.7143 8 19.4395 8 19.7326 8.47427C20.0257 8.94854 19.7014 9.59717 19.0528 10.8944L18.6056 11.7889C18.0677 12.8647 17.7987 13.4026 17.3154 13.7013C16.8321 14 16.2307 14 15.0279 14Z" stroke="white" stroke-width="2" strokeLinecap="round"/>
<circle cx="17.5" cy="20" r="1" fill="white"/>
<circle cx="9.5" cy="20" r="1" fill="white"/>
</svg>
