<svg width="25" height="25" viewBox="0 0 25 25" fill="none" xmlns="http://www.w3.org/2000/svg">
<path d="M9.24564 12.7561C6.75719 10.8956 4.98382 8.84915 4.01552 7.69867C3.71578 7.34253 3.61756 7.0819 3.55851 6.6228C3.35629 5.0508 3.25519 4.2648 3.71613 3.7574C4.17708 3.25 4.99222 3.25 6.62251 3.25H18.1539C19.7842 3.25 20.5993 3.25 21.0602 3.7574C21.5212 4.2648 21.4201 5.0508 21.2179 6.62281C21.1588 7.08191 21.0606 7.34254 20.7608 7.69867C19.7912 8.85062 18.0143 10.9007 15.5208 12.7635C15.2952 12.9321 15.1465 13.2067 15.1189 13.5114C14.8719 16.242 14.6441 17.7376 14.5023 18.4942C14.2735 19.7157 12.5414 20.4506 11.6142 21.1063C11.0623 21.4966 10.3925 21.032 10.321 20.4278C10.1846 19.2761 9.92779 16.9364 9.64745 13.5114C9.62227 13.2039 9.47304 12.9261 9.24564 12.7561Z" stroke="#141B34" stroke-width="1.5" stroke-linecap="round" stroke-linejoin="round"/>
</svg>
