<svg width="63" height="63" viewBox="0 0 63 63" fill="none" xmlns="http://www.w3.org/2000/svg">
<path d="M60.4317 49.621H2.56832C1.71338 49.621 1.01952 50.3133 1.01952 51.1698C1.01952 52.0232 1.71338 52.7186 2.56832 52.7186H6.19098L9.74393 59.4002C10.3449 60.5293 11.8797 61.4508 13.159 61.4508H49.844C51.1203 61.4508 52.6567 60.5277 53.2561 59.4002L56.8106 52.7186H60.4317C61.2882 52.7186 61.9805 52.0232 61.9805 51.1698C61.9805 50.3133 61.2866 49.621 60.4317 49.621Z" fill="black"/>
<path d="M29.5826 12.8493C29.5826 13.4905 30.103 14.0109 30.7442 14.0109C31.3854 14.0109 31.9058 13.4905 31.9058 12.8493C31.9058 12.4683 32.0158 12.3258 32.3658 11.9324C32.7855 11.4662 33.4221 10.7584 33.4221 9.4698C33.4221 8.1781 32.7871 7.47339 32.3658 7.0041C32.0158 6.6138 31.9058 6.47131 31.9058 6.08721C31.9058 5.7062 32.0142 5.56526 32.3658 5.17651C32.7855 4.70722 33.4221 3.99942 33.4221 2.71081C33.4221 2.06961 32.9017 1.54921 32.2605 1.54921C31.6193 1.54921 31.0989 2.06961 31.0989 2.71081C31.0989 3.09182 30.9873 3.23431 30.6373 3.62461C30.2176 4.09235 29.5826 4.7986 29.5826 6.08721C29.5826 7.37891 30.216 8.08672 30.6373 8.556C30.9873 8.9463 31.0989 9.0857 31.0989 9.4698C31.0989 9.8508 30.9873 9.99329 30.6373 10.3836C30.216 10.8529 29.5826 11.5607 29.5826 12.8493Z" fill="black"/>
<path d="M14.2153 23.5965C14.2153 24.2377 14.7357 24.7581 15.3769 24.7581C16.0181 24.7581 16.5385 24.2377 16.5385 23.5965C16.5385 23.2154 16.6485 23.073 16.9985 22.6827C17.4183 22.2134 18.0548 21.5056 18.0548 20.2139C18.0548 18.9253 17.4198 18.2144 16.9985 17.7482C16.6485 17.3579 16.5385 17.2154 16.5385 16.8344C16.5385 16.4534 16.647 16.314 16.9985 15.9237C17.4183 15.4544 18.0548 14.7466 18.0548 13.458C18.0548 12.8168 17.5344 12.2964 16.8932 12.2964C16.252 12.2964 15.7316 12.8168 15.7316 13.458C15.7316 13.839 15.6232 13.9815 15.2716 14.3687C14.8503 14.8395 14.2153 15.5473 14.2153 16.8359C14.2153 18.1245 14.8503 18.8323 15.2716 19.3016C15.6216 19.6919 15.7316 19.8344 15.7316 20.2154C15.7316 20.5995 15.6216 20.7389 15.2716 21.1323C14.8503 21.5969 14.2153 22.3063 14.2153 23.5965Z" fill="black"/>
<path d="M44.9467 23.5965C44.9467 24.2377 45.4671 24.7581 46.1083 24.7581C46.7495 24.7581 47.2699 24.2377 47.2699 23.5965C47.2699 23.2154 47.3814 23.073 47.733 22.6827C48.1527 22.2134 48.7893 21.5056 48.7893 20.2139C48.7893 18.9253 48.1543 18.2144 47.733 17.7482C47.3814 17.3579 47.2699 17.2154 47.2699 16.8344C47.2699 16.4534 47.3814 16.314 47.7315 15.9237C48.1512 15.4544 48.7893 14.7466 48.7893 13.458C48.7893 12.8168 48.2689 12.2964 47.6277 12.2964C46.9865 12.2964 46.4661 12.8168 46.4661 13.458C46.4661 13.839 46.3546 13.9815 46.003 14.3687C45.5833 14.838 44.9467 15.5458 44.9467 16.8344C44.9467 18.123 45.5817 18.8308 46.003 19.3001C46.3546 19.6904 46.4661 19.8329 46.4661 20.2139C46.4661 20.598 46.3546 20.7374 46.003 21.1308C45.5817 21.5969 44.9467 22.3063 44.9467 23.5965Z" fill="black"/>
<path d="M34.1794 23.9062C35.0499 23.1535 35.6121 22.0523 35.6121 20.8117C35.6121 18.5458 33.769 16.7012 31.5 16.7012C29.2341 16.7012 27.3895 18.5458 27.3895 20.8117C27.3895 22.0523 27.9517 23.1535 28.8237 23.9062C16.6748 25.1824 7.08308 35.0313 6.2142 47.2978H56.7889C55.92 35.0313 46.3283 25.1824 34.1794 23.9062ZM31.5 30.3461C23.8443 30.3461 16.8173 35.1505 14.0124 42.3014C13.8343 42.7583 13.396 43.0401 12.9329 43.0401C12.7904 43.0401 12.6479 43.0123 12.5101 42.9581C11.9107 42.7257 11.618 42.0505 11.8503 41.4542C14.999 33.419 22.8964 28.0229 31.5015 28.0229C32.1427 28.0229 32.6631 28.5433 32.6631 29.1845C32.6631 29.8257 32.1412 30.3461 31.5 30.3461ZM31.5 22.6021C30.5134 22.6021 29.7127 21.7967 29.7127 20.8117C29.7127 19.8267 30.515 19.0244 31.5 19.0244C32.485 19.0244 33.2889 19.8267 33.2889 20.8117C33.2889 21.7967 32.4866 22.6021 31.5 22.6021Z" fill="black"/>
</svg>
