<svg width="26" height="20" viewBox="0 0 26 20" fill="none" xmlns="http://www.w3.org/2000/svg">
<path d="M24.1873 18.3333H23.3533V4.16667C23.3533 3.94565 23.2654 3.73369 23.109 3.57741C22.9526 3.42113 22.7404 3.33333 22.5192 3.33333H18.349V0.833333C18.349 0.61232 18.2611 0.400358 18.1047 0.244078C17.9483 0.0877975 17.7361 0 17.5149 0H7.5064C7.2852 0 7.07306 0.0877975 6.91664 0.244078C6.76023 0.400358 6.67236 0.61232 6.67236 0.833333V6.66667H2.50213C2.28093 6.66667 2.06879 6.75446 1.91238 6.91074C1.75596 7.06702 1.66809 7.27899 1.66809 7.5V18.3333H0.834045C0.612842 18.3333 0.4007 18.4211 0.244286 18.5774C0.0878723 18.7337 0 18.9457 0 19.1667C0 19.3877 0.0878723 19.5996 0.244286 19.7559C0.4007 19.9122 0.612842 20 0.834045 20H24.1873C24.4085 20 24.6206 19.9122 24.7771 19.7559C24.9335 19.5996 25.0213 19.3877 25.0213 19.1667C25.0213 18.9457 24.9335 18.7337 24.7771 18.5774C24.6206 18.4211 24.4085 18.3333 24.1873 18.3333ZM7.5064 15H5.83831C5.61711 15 5.40497 14.9122 5.24856 14.7559C5.09214 14.5996 5.00427 14.3877 5.00427 14.1667C5.00427 13.9457 5.09214 13.7337 5.24856 13.5774C5.40497 13.4211 5.61711 13.3333 5.83831 13.3333H7.5064C7.72761 13.3333 7.93975 13.4211 8.09616 13.5774C8.25258 13.7337 8.34045 13.9457 8.34045 14.1667C8.34045 14.3877 8.25258 14.5996 8.09616 14.7559C7.93975 14.9122 7.72761 15 7.5064 15ZM7.5064 11.6667H5.83831C5.61711 11.6667 5.40497 11.5789 5.24856 11.4226C5.09214 11.2663 5.00427 11.0543 5.00427 10.8333C5.00427 10.6123 5.09214 10.4004 5.24856 10.2441C5.40497 10.0878 5.61711 10 5.83831 10H7.5064C7.72761 10 7.93975 10.0878 8.09616 10.2441C8.25258 10.4004 8.34045 10.6123 8.34045 10.8333C8.34045 11.0543 8.25258 11.2663 8.09616 11.4226C7.93975 11.5789 7.72761 11.6667 7.5064 11.6667ZM14.1788 18.3333H10.8426V14.1667H14.1788V18.3333ZM13.3447 11.6667H11.6766C11.4554 11.6667 11.2433 11.5789 11.0869 11.4226C10.9305 11.2663 10.8426 11.0543 10.8426 10.8333C10.8426 10.6123 10.9305 10.4004 11.0869 10.2441C11.2433 10.0878 11.4554 10 11.6766 10H13.3447C13.5659 10 13.7781 10.0878 13.9345 10.2441C14.0909 10.4004 14.1788 10.6123 14.1788 10.8333C14.1788 11.0543 14.0909 11.2663 13.9345 11.4226C13.7781 11.5789 13.5659 11.6667 13.3447 11.6667ZM13.3447 8.33333H11.6766C11.4554 8.33333 11.2433 8.24554 11.0869 8.08926C10.9305 7.93297 10.8426 7.72101 10.8426 7.5C10.8426 7.27899 10.9305 7.06702 11.0869 6.91074C11.2433 6.75446 11.4554 6.66667 11.6766 6.66667H13.3447C13.5659 6.66667 13.7781 6.75446 13.9345 6.91074C14.0909 7.06702 14.1788 7.27899 14.1788 7.5C14.1788 7.72101 14.0909 7.93297 13.9345 8.08926C13.7781 8.24554 13.5659 8.33333 13.3447 8.33333ZM13.3447 5H11.6766C11.4554 5 11.2433 4.9122 11.0869 4.75592C10.9305 4.59964 10.8426 4.38768 10.8426 4.16667C10.8426 3.94565 10.9305 3.73369 11.0869 3.57741C11.2433 3.42113 11.4554 3.33333 11.6766 3.33333H13.3447C13.5659 3.33333 13.7781 3.42113 13.9345 3.57741C14.0909 3.73369 14.1788 3.94565 14.1788 4.16667C14.1788 4.38768 14.0909 4.59964 13.9345 4.75592C13.7781 4.9122 13.5659 5 13.3447 5ZM19.183 15H17.5149C17.2937 15 17.0816 14.9122 16.9252 14.7559C16.7688 14.5996 16.6809 14.3877 16.6809 14.1667C16.6809 13.9457 16.7688 13.7337 16.9252 13.5774C17.0816 13.4211 17.2937 13.3333 17.5149 13.3333H19.183C19.4042 13.3333 19.6164 13.4211 19.7728 13.5774C19.9292 13.7337 20.0171 13.9457 20.0171 14.1667C20.0171 14.3877 19.9292 14.5996 19.7728 14.7559C19.6164 14.9122 19.4042 15 19.183 15ZM19.183 11.6667H17.5149C17.2937 11.6667 17.0816 11.5789 16.9252 11.4226C16.7688 11.2663 16.6809 11.0543 16.6809 10.8333C16.6809 10.6123 16.7688 10.4004 16.9252 10.2441C17.0816 10.0878 17.2937 10 17.5149 10H19.183C19.4042 10 19.6164 10.0878 19.7728 10.2441C19.9292 10.4004 20.0171 10.6123 20.0171 10.8333C20.0171 11.0543 19.9292 11.2663 19.7728 11.4226C19.6164 11.5789 19.4042 11.6667 19.183 11.6667ZM19.183 8.33333H17.5149C17.2937 8.33333 17.0816 8.24554 16.9252 8.08926C16.7688 7.93297 16.6809 7.72101 16.6809 7.5C16.6809 7.27899 16.7688 7.06702 16.9252 6.91074C17.0816 6.75446 17.2937 6.66667 17.5149 6.66667H19.183C19.4042 6.66667 19.6164 6.75446 19.7728 6.91074C19.9292 7.06702 20.0171 7.27899 20.0171 7.5C20.0171 7.72101 19.9292 7.93297 19.7728 8.08926C19.6164 8.24554 19.4042 8.33333 19.183 8.33333Z" fill="white"/>
</svg>
