<?xml version="1.0" encoding="utf-8"?>
<!-- Generator: Adobe Illustrator 27.9.6, SVG Export Plug-In . SVG Version: 9.03 Build 54986)  -->
<svg version="1.1" id="Layer_1" xmlns="http://www.w3.org/2000/svg" xmlns:xlink="http://www.w3.org/1999/xlink" x="0px" y="0px"
	 viewBox="0 0 21 21" style="enable-background:new 0 0 21 21;" xml:space="preserve">
<style type="text/css">
	.st0{fill:none;stroke:#d11b4b;stroke-width:2;strokeLinecap:round;}
	.st1{fill:none;stroke:#d11b4b;stroke-width:2;strokeLinecap:round;strokeLinejoin:round;}
	.st2{fill:#d11b4b;}
</style>
<path class="st0" d="M4.1,3.3h1.4c0.3,0,0.5,0,0.7,0c0.2,0.1,0.4,0.2,0.5,0.4c0.1,0.1,0.1,0.3,0.2,0.6l0.2,0.6c0,0.1,0,0.1,0,0.2
	c0.2,0.8,1,1.4,1.8,1.4c0,0,0.1,0,0.2,0l0,0"/>
<path class="st1" d="M15.8,14.2H7.1c-0.6,0-1.1-0.6-0.9-1.2l0,0c0.3-0.8,1-1.3,1.8-1.3h4.5"/>
<path class="st0" d="M12.5,11.7H9.9c-0.7,0-1.1,0-1.4-0.1c-0.5-0.2-0.9-0.5-1.1-1C7.2,10.3,7.2,10,7,9.2C6.9,8.5,6.9,8.1,6.9,7.8
	C7,7.4,7.4,7,7.8,6.8c0.3-0.1,0.7-0.1,1.4-0.1h5.1c1.4,0,2.1,0,2.4,0.4c0,0,0,0,0,0.1C17,7.6,16.7,8.3,16,9.5
	c-0.5,1-0.8,1.5-1.2,1.8c0,0-0.1,0-0.1,0C14.3,11.7,13.7,11.7,12.5,11.7z"/>
<circle class="st2" cx="15" cy="16.7" r="0.8"/>
<ellipse class="st2" cx="8.3" cy="16.7" rx="0.8" ry="0.8"/>
</svg>
