<?xml version="1.0" encoding="utf-8"?>
<!-- Generator: Adobe Illustrator 27.9.6, SVG Export Plug-In . SVG Version: 9.03 Build 54986)  -->
<svg version="1.1" id="Layer_1" xmlns="http://www.w3.org/2000/svg" xmlns:xlink="http://www.w3.org/1999/xlink" x="0px" y="0px"
	 viewBox="0 0 25 24" style="enable-background:new 0 0 25 24;" xml:space="preserve">
<style type="text/css">
	.st0{fill:none;stroke:#d11b4b;stroke-width:2;}
	.st1{fill:none;stroke:#d11b4b;stroke-width:2;strokeLinecap:round;strokeLinejoin:round;}
</style>
<path class="st0" d="M5.5,12.8c0-1.4,0-2,0.3-2.6c0.3-0.6,0.8-1,1.8-1.9l1-0.9C10.5,5.7,11.4,5,12.5,5s2,0.8,3.9,2.4l1,0.9
	c1,0.9,1.5,1.3,1.8,1.9c0.3,0.6,0.3,1.3,0.3,2.6V17c0,1.9,0,2.8-0.6,3.4C18.3,21,17.4,21,15.5,21h-6c-1.9,0-2.8,0-3.4-0.6
	c-0.6-0.6-0.6-1.5-0.6-3.4V12.8z"/>
<path class="st1" d="M15,21v-5c0-0.6-0.4-1-1-1h-3c-0.6,0-1,0.4-1,1v5"/>
</svg>
