<svg width="25" height="25" viewBox="0 0 25 25" fill="none" xmlns="http://www.w3.org/2000/svg">
<path d="M5.78906 12.7625C5.78906 11.4047 5.78906 10.7258 6.06352 10.1291C6.33799 9.53236 6.85343 9.09055 7.88431 8.20694L8.88431 7.3498C10.7476 5.75267 11.6793 4.9541 12.7891 4.9541C13.8988 4.9541 14.8305 5.75267 16.6938 7.3498L17.6938 8.20694C18.7247 9.09055 19.2401 9.53236 19.5146 10.1291C19.7891 10.7258 19.7891 11.4047 19.7891 12.7625V17.0029C19.7891 18.8885 19.7891 19.8313 19.2033 20.4171C18.6175 21.0029 17.6747 21.0029 15.7891 21.0029H9.78906C7.90344 21.0029 6.96064 21.0029 6.37485 20.4171C5.78906 19.8313 5.78906 18.8885 5.78906 17.0029V12.7625Z" stroke="white" stroke-width="2"/>
<path d="M15.2891 21.0029V16.0029C15.2891 15.4506 14.8413 15.0029 14.2891 15.0029H11.2891C10.7368 15.0029 10.2891 15.4506 10.2891 16.0029V21.0029" stroke="white" stroke-width="2" strokeLinecap="round" strokeLinejoin="round"/>
</svg>
