<svg width="20" height="20" viewBox="0 0 20 20" fill="none" xmlns="http://www.w3.org/2000/svg">
<path d="M19.75 9.99985C19.7469 12.3828 18.8726 14.6824 17.2917 16.4655C15.7109 18.2485 13.5326 19.392 11.1671 19.6805C11.1145 19.6864 11.0611 19.6812 11.0107 19.665C10.9602 19.6489 10.9137 19.6222 10.8743 19.5868C10.8348 19.5513 10.8034 19.5079 10.782 19.4594C10.7605 19.411 10.7496 19.3585 10.75 19.3055V12.2499H13C13.1028 12.2501 13.2045 12.2292 13.2989 12.1884C13.3933 12.1476 13.4783 12.0879 13.5487 12.0129C13.619 11.9379 13.6732 11.8493 13.7078 11.7525C13.7424 11.6557 13.7568 11.5528 13.75 11.4502C13.7334 11.2573 13.6444 11.0779 13.5009 10.9479C13.3574 10.818 13.1701 10.7472 12.9765 10.7499H10.75V8.49985C10.75 8.10203 10.908 7.7205 11.1893 7.43919C11.4706 7.15789 11.8521 6.99985 12.25 6.99985H13.75C13.8528 7.00008 13.9545 6.97916 14.0489 6.9384C14.1433 6.89764 14.2283 6.83791 14.2987 6.76292C14.369 6.68792 14.4232 6.59927 14.4578 6.50246C14.4924 6.40565 14.5068 6.30276 14.5 6.20017C14.4834 6.00698 14.3941 5.82727 14.2502 5.6973C14.1063 5.56733 13.9185 5.49677 13.7246 5.49985H12.25C11.4543 5.49985 10.6912 5.81592 10.1286 6.37853C9.56603 6.94114 9.24996 7.70421 9.24996 8.49985V10.7499H6.99996C6.89714 10.7496 6.79538 10.7705 6.70099 10.8113C6.60659 10.8521 6.52159 10.9118 6.45126 10.9868C6.38092 11.0618 6.32676 11.1504 6.29213 11.2472C6.2575 11.3441 6.24315 11.447 6.24996 11.5495C6.26655 11.7427 6.35579 11.9224 6.49968 12.0524C6.64357 12.1824 6.8314 12.2529 7.02527 12.2499H9.24996V19.3074C9.25028 19.3603 9.2394 19.4127 9.21803 19.4611C9.19666 19.5095 9.16528 19.5528 9.12597 19.5882C9.08665 19.6237 9.04028 19.6504 8.98991 19.6666C8.93954 19.6828 8.8863 19.6882 8.83371 19.6824C6.40498 19.3866 4.1758 18.1898 2.5874 16.3288C0.999005 14.4678 0.167161 12.0783 0.25652 9.63329C0.44402 4.57079 4.54464 0.455167 9.6109 0.258292C10.9225 0.207485 12.231 0.421746 13.4579 0.888259C14.6848 1.35477 15.8051 2.06395 16.7516 2.97338C17.6981 3.88281 18.4515 4.97381 18.9667 6.18111C19.4819 7.38842 19.7483 8.68723 19.75 9.99985Z" fill="#0a74ce"/>
</svg>
