<svg width="18" height="18" viewBox="0 0 18 18" fill="none" xmlns="http://www.w3.org/2000/svg">
<path d="M17.1566 17.6109C17.092 17.7286 16.9971 17.8267 16.8817 17.8951C16.7662 17.9636 16.6346 17.9998 16.5004 18H12.0004C11.8741 18 11.75 17.9681 11.6393 17.9073C11.5287 17.8465 11.4352 17.7587 11.3676 17.6522L7.57162 11.6869L2.05536 17.7544C1.92089 17.8988 1.7349 17.9845 1.53772 17.9927C1.34054 18.0009 1.14805 17.9311 1.002 17.7984C0.855948 17.6657 0.768097 17.4807 0.757496 17.2836C0.746894 17.0866 0.814395 16.8933 0.945365 16.7456L6.7363 10.3706L0.867552 1.15313C0.795273 1.03973 0.754811 0.908984 0.750403 0.774582C0.745996 0.64018 0.777805 0.507066 0.8425 0.389177C0.907195 0.271288 1.0024 0.172962 1.11813 0.104494C1.23387 0.0360256 1.36589 -6.53095e-05 1.50036 8.87202e-08H6.00036C6.12659 3.91221e-05 6.25077 0.0319361 6.36139 0.0927355C6.472 0.153535 6.56549 0.24127 6.63318 0.347813L10.4291 6.31312L15.9454 0.245625C16.0798 0.101174 16.2658 0.015547 16.463 0.00730857C16.6602 -0.00092985 16.8527 0.0688843 16.9987 0.201615C17.1448 0.334346 17.2326 0.519295 17.2432 0.716365C17.2538 0.913434 17.1863 1.10674 17.0554 1.25438L11.2644 7.62469L17.1332 16.8478C17.2051 16.9613 17.2451 17.0919 17.2493 17.2262C17.2534 17.3604 17.2214 17.4933 17.1566 17.6109Z" fill="#0a74ce	"/>
</svg>
