<svg width="22" height="18" viewBox="0 0 22 18" fill="none" xmlns="http://www.w3.org/2000/svg">
<path d="M20.9684 3.5175C20.8801 3.17189 20.7109 2.85224 20.4747 2.58491C20.2385 2.31758 19.9421 2.11024 19.61 1.98C16.3962 0.738753 11.2812 0.750004 11 0.750004C10.7188 0.750004 5.60375 0.738753 2.39 1.98C2.0579 2.11024 1.76153 2.31758 1.52534 2.58491C1.28915 2.85224 1.1199 3.17189 1.03156 3.5175C0.78875 4.45313 0.5 6.16313 0.5 9C0.5 11.8369 0.78875 13.5469 1.03156 14.4825C1.11977 14.8283 1.28895 15.1481 1.52515 15.4156C1.76136 15.6831 2.0578 15.8906 2.39 16.0209C5.46875 17.2088 10.2875 17.25 10.9381 17.25H11.0619C11.7125 17.25 16.5341 17.2088 19.61 16.0209C19.9422 15.8906 20.2386 15.6831 20.4748 15.4156C20.711 15.1481 20.8802 14.8283 20.9684 14.4825C21.2113 13.545 21.5 11.8369 21.5 9C21.5 6.16313 21.2113 4.45313 20.9684 3.5175ZM14.0553 9.61125L10.3053 12.2363C10.1931 12.3148 10.0616 12.3612 9.92492 12.3703C9.78826 12.3794 9.65172 12.351 9.5301 12.288C9.40847 12.225 9.30642 12.1299 9.23501 12.013C9.1636 11.8962 9.12555 11.762 9.125 11.625V6.375C9.12504 6.2378 9.16271 6.10324 9.23392 5.98597C9.30513 5.86869 9.40714 5.77319 9.52885 5.70987C9.65057 5.64655 9.78732 5.61783 9.92422 5.62683C10.0611 5.63584 10.1929 5.68222 10.3053 5.76094L14.0553 8.38594C14.154 8.45512 14.2345 8.54704 14.2901 8.65393C14.3457 8.76081 14.3747 8.87952 14.3747 9C14.3747 9.12049 14.3457 9.23919 14.2901 9.34608C14.2345 9.45297 14.154 9.54489 14.0553 9.61407V9.61125Z" fill="white"/>
</svg>
