<svg width="25" height="25" viewBox="0 0 25 25" fill="none" xmlns="http://www.w3.org/2000/svg">
<g clip-path="url(#clip0_479_22598)">
<path d="M22.6434 8.28944C22.646 9.27331 22.4535 10.2479 22.077 11.1569C21.7004 12.0659 21.1473 12.8911 20.4496 13.5848L10.9937 23.0408C9.98685 24.0463 8.62195 24.6109 7.19901 24.6104C5.77606 24.6099 4.41154 24.0444 3.40536 23.0383C2.39919 22.0321 1.83372 20.6676 1.83325 19.2446C1.83278 17.8217 2.39735 16.4568 3.40286 15.4499L12.9766 5.87646C13.2776 5.57314 13.6356 5.33223 14.0299 5.16757C14.4243 5.0029 14.8472 4.91772 15.2746 4.91691C15.7019 4.91609 16.1252 4.99967 16.5202 5.16283C16.9152 5.32599 17.274 5.56554 17.5762 5.86771C17.8784 6.16989 18.1179 6.52876 18.281 6.92373C18.4442 7.3187 18.5278 7.742 18.5269 8.16934C18.5261 8.59668 18.4409 9.01965 18.2762 9.41399C18.1116 9.80833 17.8707 10.1663 17.5673 10.4673L10.3136 17.7208C10.2433 17.7911 10.1479 17.8307 10.0485 17.8307C9.94903 17.8307 9.85366 17.7911 9.78334 17.7208L8.7228 16.6603C8.65249 16.59 8.61299 16.4946 8.61299 16.3952C8.61299 16.2957 8.65249 16.2003 8.7228 16.13L15.9765 8.87646C16.0691 8.78394 16.1425 8.67409 16.1925 8.5532C16.2426 8.4323 16.2684 8.30273 16.2684 8.17187C16.2684 8.04102 16.2426 7.91145 16.1925 7.79055C16.1425 7.66966 16.0691 7.55981 15.9765 7.46729C15.7864 7.28671 15.5342 7.18603 15.2719 7.18603C15.0097 7.18603 14.7575 7.28671 14.5673 7.46729L4.99357 17.0408C4.40888 17.6255 4.08041 18.4185 4.08042 19.2454C4.08043 20.0723 4.40892 20.8653 4.99363 21.45C5.57834 22.0347 6.37137 22.3632 7.19826 22.3632C8.02515 22.3631 8.81817 22.0347 9.40286 21.4499L18.859 11.9942C19.8415 11.0116 20.3935 9.67902 20.3935 8.2895C20.3935 6.89998 19.8415 5.56737 18.859 4.58483C17.8764 3.60229 16.5438 3.05031 15.1543 3.05032C13.7648 3.05032 12.4321 3.60231 11.4496 4.58485L7.31362 8.72084C7.2433 8.79115 7.14793 8.83065 7.04848 8.83065C6.94903 8.83065 6.85366 8.79115 6.78334 8.72084L5.7228 7.6603C5.65249 7.58997 5.61299 7.4946 5.61299 7.39516C5.61299 7.29571 5.65249 7.20034 5.7228 7.13001L9.85879 2.99417C10.9061 1.94687 12.2405 1.23364 13.6932 0.944684C15.1459 0.655727 16.6517 0.804018 18.0201 1.3708C19.3885 1.93759 20.5581 2.89742 21.3811 4.12892C22.204 5.36042 22.6433 6.80828 22.6434 8.28944Z" fill="#9E9E9E"/>
</g>
<defs>
<clipPath id="clip0_479_22598">
<rect width="24" height="24" fill="white" transform="translate(0.238525 0.800781)"/>
</clipPath>
</defs>
</svg>
