<svg width="25" height="25" viewBox="0 0 25 25" fill="none" xmlns="http://www.w3.org/2000/svg">
<path fillRule="evenodd" clipRule="evenodd" d="M3.4101 3.47168C2.23853 4.64325 2.23853 6.52887 2.23853 10.3001V14.3001C2.23853 18.0713 2.23853 19.957 3.4101 21.1285C4.58167 22.3001 6.46729 22.3001 10.2385 22.3001H14.2385C18.0098 22.3001 19.8954 22.3001 21.067 21.1285C22.2385 19.957 22.2385 18.0713 22.2385 14.3001V14.3001V10.3001C22.2385 7.46076 22.2385 5.69028 21.7385 4.48866V17.3001C20.7781 17.3001 19.857 16.9186 19.1779 16.2394L18.4262 15.4878C17.7049 14.7665 17.3442 14.4058 16.9353 14.2538C16.4858 14.0868 15.9912 14.0868 15.5418 14.2538C15.1328 14.4058 14.7722 14.7665 14.0509 15.4878L13.9377 15.6009C13.3524 16.1863 13.0597 16.4789 12.7487 16.5335C12.507 16.5759 12.2582 16.528 12.0495 16.3989C11.7811 16.2327 11.618 15.8523 11.2919 15.0914L11.2385 14.9668C10.4889 13.2176 10.1141 12.343 9.4602 12.0152C9.13101 11.8502 8.76265 11.7793 8.39572 11.8102C7.66688 11.8717 6.99406 12.5446 5.64841 13.8902L3.73853 15.8001V3.1875C3.62292 3.2736 3.51372 3.36806 3.4101 3.47168Z" fill="#9E9E9E"/>
<path d="M3.23853 10.3008C3.23853 8.38689 3.24065 7.05208 3.37605 6.04494C3.50759 5.06657 3.74819 4.54848 4.11721 4.17946C4.48622 3.81044 5.00432 3.56985 5.98269 3.43831C6.98982 3.3029 8.32464 3.30078 10.2385 3.30078H14.2385C16.1524 3.30078 17.4872 3.3029 18.4944 3.43831C19.4727 3.56985 19.9908 3.81044 20.3598 4.17946C20.7289 4.54848 20.9695 5.06657 21.101 6.04494C21.2364 7.05208 21.2385 8.38689 21.2385 10.3008V14.3008C21.2385 16.2147 21.2364 17.5495 21.101 18.5566C20.9695 19.535 20.7289 20.0531 20.3598 20.4221C19.9908 20.7911 19.4727 21.0317 18.4944 21.1633C17.4872 21.2987 16.1524 21.3008 14.2385 21.3008H10.2385C8.32464 21.3008 6.98982 21.2987 5.98269 21.1633C5.00432 21.0317 4.48622 20.7911 4.1172 20.4221C3.74819 20.0531 3.50759 19.535 3.37605 18.5566C3.24065 17.5495 3.23853 16.2147 3.23853 14.3008V10.3008Z" stroke="#9E9E9E" strokeWidth="2"/>
<circle cx="15.2385" cy="9.30078" r="2" fill="#9E9E9E"/>
</svg>
