<svg width="19" height="18" viewBox="0 0 19 18" fill="none" xmlns="http://www.w3.org/2000/svg">
<path d="M17.206 13.4565L18.5162 14.7667C18.7973 15.0478 18.7973 15.5036 18.5162 15.7847C16.9963 17.3046 14.59 17.4756 12.8705 16.186L12.7702 16.1108C11.4731 15.1379 10.3209 13.9857 9.34803 12.6886L9.27285 12.5883C7.98316 10.8688 8.15417 8.46253 9.67407 6.94262C9.9552 6.66149 10.411 6.66149 10.6921 6.94262L12.0023 8.2528C12.3928 8.64333 12.3928 9.27649 12.0023 9.66702L11.1308 10.5386C10.942 10.7273 10.8952 11.0157 11.0146 11.2545C11.7048 12.6348 12.824 13.754 14.2043 14.4442C14.4431 14.5636 14.7315 14.5168 14.9202 14.328L15.7918 13.4565C16.1823 13.066 16.8155 13.066 17.206 13.4565Z" fill="white"/>
</svg>
