<svg width="146" height="181" viewBox="0 0 146 181" fill="none" xmlns="http://www.w3.org/2000/svg">
<path d="M114.698 81.8665C113.378 81.8665 112.498 82.9669 112.498 84.1773C112.498 84.9476 112.498 85.7178 112.498 86.5981C112.498 108.386 94.7815 126.102 72.994 125.992C51.2066 125.882 33.4905 108.276 33.6005 86.4881C33.6005 85.7178 33.6005 84.9476 33.6005 84.0673C33.6005 82.8569 32.7202 81.7565 31.3997 81.7565H2.89996C1.57951 81.7565 0.589171 82.8569 0.699209 84.1773C3.8903 119.059 30.1893 142.717 55.6081 165.605C60.1196 169.677 64.6312 173.748 69.0327 177.819L71.3435 180.02C72.2238 180.79 73.5442 180.79 74.3145 180.02L76.6253 177.819C81.0268 173.748 85.5384 169.677 90.0499 165.605C115.579 142.827 141.878 119.169 145.069 84.2873C145.179 82.9669 144.188 81.8665 142.868 81.8665H114.368H114.698Z" fill="#ecded0"/>
<path d="M142.538 79.3357C144.188 79.3357 145.509 78.0152 145.509 76.4747C145.509 76.3646 145.509 76.1446 145.509 76.0345C140.007 44.0135 114.258 19.4751 82.1271 15.4037V12.4327C83.8877 11.3323 84.988 9.57171 85.0981 7.48099C85.0981 3.18952 80.1464 0.108459 73.324 0.108459C66.5017 0.108459 61.55 3.18952 61.55 7.48099C61.55 9.57171 62.7604 11.3323 64.521 12.4327V15.4037C32.2799 19.3651 6.53109 44.0135 1.0292 75.9245C0.809126 77.5751 1.9095 79.0056 3.45003 79.2256C3.56007 79.2256 3.78014 79.2256 3.89017 79.2256H142.538V79.3357ZM45.2644 39.8321C37.3417 44.4537 30.6294 51.056 25.7877 58.8686C25.2375 59.7489 24.3572 60.2991 23.2568 60.2991C22.7066 60.2991 22.1565 60.1891 21.7163 59.859C20.3959 58.9787 19.9557 57.2181 20.726 55.7876C26.1178 47.2046 33.4903 39.9421 42.2934 34.7704C43.7238 34.0001 45.4845 34.5503 46.2547 35.9808C46.9149 37.3012 46.4748 38.9518 45.2644 39.8321ZM55.828 35.2105L53.6273 35.9808C53.2972 36.0908 52.967 36.2009 52.6369 36.2009C51.4265 36.2009 50.3261 35.4306 49.886 34.3302C49.3358 32.7897 50.106 31.1391 51.6466 30.5889L54.0674 29.7086C55.6079 29.1584 57.2585 29.9287 57.8087 31.4692C58.3589 33.0098 57.5886 34.6603 56.0481 35.2105C56.0481 35.2105 55.9381 35.2105 55.828 35.2105Z" fill="#ecded0"/>
</svg>
