<?xml version="1.0" encoding="UTF-8"?>
<svg version="1.1" xmlns="http://www.w3.org/2000/svg" width="247" height="70">
<path d="M0 0 C81.51 0 163.02 0 247 0 C247 23.1 247 46.2 247 70 C165.49 70 83.98 70 0 70 C0 46.9 0 23.8 0 0 Z " fill="#FAFCFD" transform="translate(0,0)"/>
<path d="M0 0 C0.99 0.33 1.98 0.66 3 1 C3 1.66 3 2.32 3 3 C3.66 3 4.32 3 5 3 C5.33 2.01 5.66 1.02 6 0 C6.66 0.66 7.32 1.32 8 2 C8.556875 1.649375 9.11375 1.29875 9.6875 0.9375 C12.53886783 -0.21845993 14.08517222 0.19032562 17 1 C17.495 2.485 17.495 2.485 18 4 C15.12993232 6.94181937 12.04604062 9.59660129 8.9375 12.28125 C6.99700131 13.90432393 6.99700131 13.90432393 5.63671875 15.70703125 C3.12424142 17.69182837 0.94708321 17.28861559 -2.1875 17.1875 C-3.27417969 17.16042969 -4.36085937 17.13335937 -5.48046875 17.10546875 C-6.72763672 17.05326172 -6.72763672 17.05326172 -8 17 C-8 18.32 -8 19.64 -8 21 C-4.04 21 -0.08 21 4 21 C4 23.97 4 26.94 4 30 C0.04 30 -3.92 30 -8 30 C-8 31.32 -8 32.64 -8 34 C-4.04 34 -0.08 34 4 34 C4 36.97 4 39.94 4 43 C-3.26 43 -10.52 43 -18 43 C-18 31.12 -18 19.24 -18 7 C-7.605 6.505 -7.605 6.505 3 6 C2.01 4.02 1.02 2.04 0 0 Z " fill="#0A74CE" transform="translate(211,23)"/>
<path d="M0 0 C19.24549339 -0.86173851 19.24549339 -0.86173851 26.140625 4.23828125 C30.39731701 8.27140751 32.18942782 11.99564303 32.5625 17.9375 C32.31721628 23.30921355 30.60631277 27.03762091 27 31 C22.03147192 35.36441424 17.40885895 35.39439132 11 35 C11 32.03 11 29.06 11 26 C12.8871875 25.87625 12.8871875 25.87625 14.8125 25.75 C17.68197513 25.37925366 18.74290589 25.21692316 21 23.3125 C22.34038506 20.21285954 22.54667869 18.34840698 22 15 C20.04273417 12.0424351 20.04273417 12.0424351 17 10 C14.69 9.67 12.38 9.34 10 9 C10 17.58 10 26.16 10 35 C6.7 35 3.4 35 0 35 C0 23.45 0 11.9 0 0 Z " fill="#0F77CF" transform="translate(120,31)"/>
<path d="M0 0 C2.97 0 5.94 0 9 0 C9.02505615 0.72179443 9.0501123 1.44358887 9.07592773 2.18725586 C9.19151302 5.437535 9.31440774 8.68749688 9.4375 11.9375 C9.47681641 13.07380859 9.51613281 14.21011719 9.55664062 15.38085938 C9.61948242 17.00024414 9.61948242 17.00024414 9.68359375 18.65234375 C9.72025146 19.65257568 9.75690918 20.65280762 9.79467773 21.68334961 C9.74671841 23.96069188 9.74671841 23.96069188 11 25 C13.5 25.16666667 13.5 25.16666667 16 25 C17.71443219 23.28556781 17.23052967 20.99554759 17.31640625 18.65234375 C17.35830078 17.57275391 17.40019531 16.49316406 17.44335938 15.38085938 C17.48267578 14.24455078 17.52199219 13.10824219 17.5625 11.9375 C17.62727539 10.22723633 17.62727539 10.22723633 17.69335938 8.48242188 C17.79982839 5.65507805 17.90184207 2.82764262 18 0 C20.97 0 23.94 0 27 0 C27.08746928 4.04152915 27.14054982 8.08281305 27.1875 12.125 C27.21263672 13.26710938 27.23777344 14.40921875 27.26367188 15.5859375 C27.35647843 26.22775579 27.35647843 26.22775579 24 31 C19.7801376 34.91109198 16.06340649 35.73379419 10.4765625 35.53125 C6.32210089 34.64007212 3.69665632 32.18320899 1 29 C-0.38308781 26.23382437 -0.11210196 23.98982 -0.09765625 20.8984375 C-0.09443359 19.68671875 -0.09121094 18.475 -0.08789062 17.2265625 C-0.07951172 15.95554687 -0.07113281 14.68453125 -0.0625 13.375 C-0.05798828 12.09625 -0.05347656 10.8175 -0.04882812 9.5 C-0.03701203 6.33328708 -0.02053815 3.16666644 0 0 Z " fill="#0772CE" transform="translate(91,31)"/>
<path d="M0 0 C1.13598633 0.00483398 1.13598633 0.00483398 2.29492188 0.00976562 C3.47344727 0.02233398 3.47344727 0.02233398 4.67578125 0.03515625 C5.47306641 0.03966797 6.27035156 0.04417969 7.09179688 0.04882812 C9.05732382 0.06059775 11.0228121 0.07853277 12.98828125 0.09765625 C12.03098209 1.22353639 11.0724023 2.34832775 10.11328125 3.47265625 C9.57960938 4.09914063 9.0459375 4.725625 8.49609375 5.37109375 C4.97009839 9.40863247 2.58781591 9.62143201 -2.6015625 10.33984375 C-5.61943498 11.2887372 -6.46342687 12.38188214 -8.01171875 15.09765625 C-8.42407417 18.39649963 -8.44815095 20.31861766 -6.8125 23.23828125 C-4.48512939 25.64137975 -3.11883993 25.6765071 0.17578125 25.84765625 C1.07683594 25.904375 1.97789063 25.96109375 2.90625 26.01953125 C3.59332031 26.0453125 4.28039062 26.07109375 4.98828125 26.09765625 C4.98828125 29.06765625 4.98828125 32.03765625 4.98828125 35.09765625 C-6.47384976 36.12924804 -6.47384976 36.12924804 -11.57421875 32.53515625 C-16.20614777 28.42323589 -17.76900845 24.28204894 -18.44921875 18.16015625 C-18.19986148 12.79897501 -16.27122797 8.17229654 -12.29296875 4.51953125 C-8.32662771 1.59519506 -5.01281939 -0.03769037 0 0 Z " fill="#0D76CF" transform="translate(18.01171875,30.90234375)"/>
<path d="M0 0 C0.92683594 0.02707031 1.85367188 0.05414062 2.80859375 0.08203125 C5.0831663 0.15237885 7.35284319 0.25071653 9.625 0.375 C8.79538403 4.64159642 6.96918749 6.57521513 3.625 9.375 C2.305 9.375 0.985 9.375 -0.375 9.375 C-0.375 18.285 -0.375 27.195 -0.375 36.375 C-3.675 36.375 -6.975 36.375 -10.375 36.375 C-10.375 27.795 -10.375 19.215 -10.375 10.375 C-13.015 10.375 -15.655 10.375 -18.375 10.375 C-14.78844371 1.04995364 -9.0959827 -0.50605325 0 0 Z " fill="#1479D0" transform="translate(237.375,29.625)"/>
<path d="M0 0 C3.3 0 6.6 0 10 0 C10 11.22 10 22.44 10 34 C7.69 32.02 5.38 30.04 3 28 C2.31365479 27.41919678 1.62730957 26.83839355 0.92016602 26.23999023 C-10.40353233 16.51239413 -10.40353233 16.51239413 -11.90234375 10.19921875 C-11.87796096 7.01203998 -11.65216622 4.11590529 -11 1 C-9.89134015 1.91122727 -8.78827781 2.82926659 -7.6875 3.75 C-6.76517578 4.51570313 -6.76517578 4.51570313 -5.82421875 5.296875 C-4 7 -4 7 -1 11 C-0.67 7.37 -0.34 3.74 0 0 Z " fill="#0873CE" transform="translate(180,31)"/>
<path d="M0 0 C0 1.98 0 3.96 0 6 C-0.9075 6.391875 -1.815 6.78375 -2.75 7.1875 C-6.73155182 9.40798082 -8.96930008 11.93860016 -11 16 C-11.45866031 22.8799047 -10.56241294 26.95713463 -6 32.375 C-1.40336731 34.86484271 2.88850875 34.7280685 8 34 C12.19140823 32.12883561 14.05921911 30.35633017 15.875 26.25 C16.24625 25.1775 16.6175 24.105 17 23 C18.98 23 20.96 23 23 23 C22.34504035 28.40341708 20.37156737 33.13525953 16.0625 36.5234375 C9.80933655 40.50063337 4.42738244 41.97931413 -3 41 C-8.9409404 38.56087455 -13.33636303 34.55110873 -16.07421875 28.70703125 C-17.93545097 23.26469401 -18.16535402 16.98080223 -16.0546875 11.58203125 C-12.5501991 5.70815605 -7.21087138 0 0 0 Z " fill="#1178D0" transform="translate(65,28)"/>
<path d="M0 0 C0 8.25 0 16.5 0 25 C3.96 25 7.92 25 12 25 C12 27.97 12 30.94 12 34 C5.07 34 -1.86 34 -9 34 C-9.21690913 29.83052443 -9.37491718 25.67240553 -9.5 21.5 C-9.56703125 20.32695313 -9.6340625 19.15390625 -9.703125 17.9453125 C-9.89686978 9.32366966 -9.89686978 9.32366966 -7.21875 5.37109375 C-1.91396605 0 -1.91396605 0 0 0 Z " fill="#0671CD" transform="translate(35,32)"/>
<path d="M0 0 C3.3 0 6.6 0 10 0 C10 11.88 10 23.76 10 36 C6.7 36 3.4 36 0 36 C0 24.12 0 12.24 0 0 Z " fill="#1378D0" transform="translate(158,30)"/>
<path d="M0 0 C2.5 1 2.5 1 4 2 C3.67 2.66 3.34 3.32 3 4 C0.03 3.505 0.03 3.505 -3 3 C-0.1374372 7.66491715 2.64125113 11.65650045 7.875 13.75 C14.2829356 14.50387478 18.29670969 13.74196649 24 11 C24.99 10.67 25.98 10.34 27 10 C27 9.34 27 8.68 27 8 C27.66 8 28.32 8 29 8 C27.20908871 12.55868329 24.06586116 15.01792678 19.69921875 17.09375 C14.42512005 18.86450383 8.19752777 19.03449428 2.875 17.3125 C-1.44167134 14.9999975 -4.69986395 11.54160942 -8 8 C-10.46800047 9.15173355 -12.04783565 10.04783565 -14 12 C-13.7579806 7.88567014 -13.32870991 5.4681626 -10.9375 2.0625 C-6.87219081 -0.79186603 -4.90477475 -0.54497497 0 0 Z " fill="#34427C" transform="translate(101,10)"/>
<path d="M0 0 C0.25 2.25 0.25 2.25 0 5 C-1.33333333 6.33333333 -2.66666667 7.66666667 -4 9 C-4.66666667 11.5 -4.66666667 11.5 -4 14 C-2.47981752 16.43695474 -2.47981752 16.43695474 0 18 C3 18.66666667 3 18.66666667 6 18 C7.37310707 16.70766393 8.71034824 15.37562854 10 14 C11.32 14 12.64 14 14 14 C12.82191948 17.3529984 11.80593388 19.7552529 9 22 C5.28512845 23.23829052 1.86021488 23.5503822 -2 23 C-5.43823122 20.9071636 -7.81169353 18.889003 -9 15 C-9.7557317 8.30637636 -9.7557317 8.30637636 -7.94921875 5.18359375 C-3.71490964 0 -3.71490964 0 0 0 Z " fill="#1279D1" transform="translate(65,37)"/>
<path d="M0 0 C6.00006685 0.37500418 10.45063788 1.96458256 15 6 C18.39753075 10.530041 20.32285973 14.26923972 20 20 C18.35 20 16.7 20 15 20 C14.62875 18.783125 14.2575 17.56625 13.875 16.3125 C12.12503666 11.67057847 10.11896986 9.74597991 6 7 C2.78734084 5.67649342 2.78734084 5.67649342 0 5 C0 3.35 0 1.7 0 0 Z " fill="#EF5341" transform="translate(68,28)"/>
<path d="M0 0 C2.97 0 5.94 0 9 0 C9 0.66 9 1.32 9 2 C11.97 2 14.94 2 18 2 C17.01 2.66 16.02 3.32 15 4 C15 5.32 15 6.64 15 8 C13.35 8.33 11.7 8.66 10 9 C10 20.88 10 32.76 10 45 C9.34 44.67 8.68 44.34 8 44 C8.33 32.78 8.66 21.56 9 10 C5.7 10 2.4 10 -1 10 C-0.01 9.01 0.98 8.02 2 7 C2 5.68 2 4.36 2 3 C1.34 3 0.68 3 0 3 C0 2.01 0 1.02 0 0 Z " fill="#A1C9EC" transform="translate(181,21)"/>
<path d="M0 0 C2.65748771 2.29677608 3.53406631 4.13316637 4.4375 7.5 C5.2990813 10.20343112 5.87738219 11.85013378 7.6875 14.0625 C11.13023242 15.45820233 14.37719627 15.53510474 18 15 C21.02990288 13.62277142 22.83802832 12.16197168 25.1875 9.8125 C25.785625 9.214375 26.38375 8.61625 27 8 C27.66 8 28.32 8 29 8 C27.75892597 12.96429611 26.23893588 15.13871828 22 18 C17.99843818 20.00078091 13.33933695 19.6335671 9 19 C5.16725649 16.98205377 2.78505766 14.29705179 0.5625 10.625 C-0.21209501 7.01022327 -0.12525523 3.69502943 0 0 Z " fill="#E5F0F9" transform="translate(53,44)"/>
<path d="M0 0 C0.99 0.33 1.98 0.66 3 1 C3 1.66 3 2.32 3 3 C3.66 3 4.32 3 5 3 C5.33 2.01 5.66 1.02 6 0 C6.66 0.66 7.32 1.32 8 2 C8.556875 1.649375 9.11375 1.29875 9.6875 0.9375 C12.53886783 -0.21845993 14.08517222 0.19032562 17 1 C17.495 2.485 17.495 2.485 18 4 C15.2802921 6.84333099 13.99549198 7.96322074 9.92724609 8.11352539 C7.99486084 8.10567017 7.99486084 8.10567017 6.0234375 8.09765625 C5.33819 8.0962413 4.6529425 8.09482635 3.94692993 8.09336853 C1.75624239 8.08776675 -0.4343433 8.07521406 -2.625 8.0625 C-4.10937352 8.05748522 -5.59374865 8.05292228 -7.078125 8.04882812 C-10.71878315 8.03779677 -14.35938164 8.02053099 -18 8 C-18 7.67 -18 7.34 -18 7 C-7.605 6.505 -7.605 6.505 3 6 C2.01 4.02 1.02 2.04 0 0 Z " fill="#ABCFED" transform="translate(211,23)"/>
<path d="M0 0 C0.66 0 1.32 0 2 0 C1.835 0.928125 1.67 1.85625 1.5 2.8125 C0.92251612 5.95621353 0.92251612 5.95621353 1 9 C0.6937566 10.33981486 0.36548445 11.67511887 0 13 C-0.99 12.67 -1.98 12.34 -3 12 C-3.4125 12.515625 -3.825 13.03125 -4.25 13.5625 C-4.8275 14.036875 -5.405 14.51125 -6 15 C-8.1875 14.6875 -8.1875 14.6875 -10 14 C-10 13.34 -10 12.68 -10 12 C-9.01 11.67 -8.02 11.34 -7 11 C-6.67 10.01 -6.34 9.02 -6 8 C-8.475 7.01 -8.475 7.01 -11 6 C-11 5.34 -11 4.68 -11 4 C-8.03 4 -5.06 4 -2 4 C-1.34 2.68 -0.68 1.36 0 0 Z " fill="#2685D4" transform="translate(138,2)"/>
<path d="M0 0 C2.94075922 0.1367795 5.19750694 0.33021897 7.51171875 2.26171875 C10.28594268 5.41749784 11 6.70970035 11 11 C9.68 11 8.36 11 7 11 C5.96210419 9.35666496 4.96432076 7.68756133 4 6 C1.93299345 4.67206394 1.93299345 4.67206394 0 4 C0 2.68 0 1.36 0 0 Z " fill="#FBB91F" transform="translate(68,37)"/>
<path d="M0 0 C0.3125 2.25 0.3125 2.25 0 5 C-2.3125 7.375 -2.3125 7.375 -5 9 C-5.99 8.67 -6.98 8.34 -8 8 C-8 10.31 -8 12.62 -8 15 C-8.33 15 -8.66 15 -9 15 C-9.66964286 7.23214286 -9.66964286 7.23214286 -6.625 3.5625 C-2.97560976 0 -2.97560976 0 0 0 Z " fill="#2181D4" transform="translate(65,37)"/>
<path d="M0 0 C0.94875 0.04125 1.8975 0.0825 2.875 0.125 C2.875 2.105 2.875 4.085 2.875 6.125 C0.565 6.125 -1.745 6.125 -4.125 6.125 C-4.75 4.25 -4.75 4.25 -5.125 2.125 C-3.125 0.125 -3.125 0.125 0 0 Z " fill="#6CACE2" transform="translate(206.125,22.875)"/>
<path d="M0 0 C0.33 0.99 0.66 1.98 1 3 C0.67 3.66 0.34 4.32 0 5 C-1.98 5 -3.96 5 -6 5 C-6.33 3.35 -6.66 1.7 -7 0 C-4.3333581 -1.33332095 -2.83319697 -0.67102033 0 0 Z " fill="#5EA4DF" transform="translate(228,24)"/>
<path d="M0 0 C1.9375 0.1875 1.9375 0.1875 4 1 C5.25 3.0625 5.25 3.0625 6 5 C5.34 5 4.68 5 4 5 C4 5.66 4 6.32 4 7 C2.35 7 0.7 7 -1 7 C-1.04254356 5.00045254 -1.04080783 2.99958364 -1 1 C-0.67 0.67 -0.34 0.34 0 0 Z " fill="#ACD8B6" transform="translate(69,42)"/>
<path d="M0 0 C-1.12109375 1.51171875 -1.12109375 1.51171875 -3 3 C-5.84765625 3.14453125 -5.84765625 3.14453125 -9.0625 2.8125 C-10.65771484 2.66748047 -10.65771484 2.66748047 -12.28515625 2.51953125 C-15 2 -15 2 -17 0 C-14.9174133 -0.19561869 -12.83388144 -0.38119313 -10.75 -0.5625 C-9.58984375 -0.66691406 -8.4296875 -0.77132813 -7.234375 -0.87890625 C-4.48128523 -0.98198087 -2.580018 -0.86213473 0 0 Z " fill="#A9AEC7" transform="translate(125,21)"/>
<path d="M0 0 C1.2065625 0.0309375 1.2065625 0.0309375 2.4375 0.0625 C2.4375 2.0425 2.4375 4.0225 2.4375 6.0625 C0.4575 6.0625 -1.5225 6.0625 -3.5625 6.0625 C-3.605221 4.39638095 -3.60313832 2.72867115 -3.5625 1.0625 C-2.5625 0.0625 -2.5625 0.0625 0 0 Z " fill="#549DDC" transform="translate(244.5625,22.9375)"/>
<path d="M0 0 C1.98 0 3.96 0 6 0 C6 0.66 6 1.32 6 2 C4.68 2 3.36 2 2 2 C2 3.98 2 5.96 2 8 C4.31 8 6.62 8 9 8 C9 8.33 9 8.66 9 9 C6.03 9 3.06 9 0 9 C0 6.03 0 3.06 0 0 Z " fill="#4094DC" transform="translate(131,57)"/>
<path d="M0 0 C0.66 0 1.32 0 2 0 C0.50521886 3.80489745 -1.69442214 5.66190835 -5 8 C-5.99 8.33 -6.98 8.66 -8 9 C-8 8.34 -8 7.68 -8 7 C-8.66 6.67 -9.32 6.34 -10 6 C-3.375 3.125 -3.375 3.125 0 2 C0 1.34 0 0.68 0 0 Z " fill="#465388" transform="translate(128,18)"/>
<path d="M0 0 C0 1.65 0 3.3 0 5 C-1.65 5 -3.3 5 -5 5 C-5 3.68 -5 2.36 -5 1 C-3 0 -3 0 0 0 Z " fill="#F25D4D" transform="translate(88,43)"/>
<path d="M0 0 C0.99 0 1.98 0 3 0 C3.1875 2.875 3.1875 2.875 3 6 C2.01 6.66 1.02 7.32 0 8 C0 5.36 0 2.72 0 0 Z " fill="#0271CF" transform="translate(57,45)"/>
<path d="M0 0 C0.99 0.33 1.98 0.66 3 1 C3 1.66 3 2.32 3 3 C3.66 3 4.32 3 5 3 C5.33 2.01 5.66 1.02 6 0 C6.33 0.99 6.66 1.98 7 3 C6.01 4.485 6.01 4.485 5 6 C4.01 5.67 3.02 5.34 2 5 C0.8125 2.4375 0.8125 2.4375 0 0 Z " fill="#3C92DB" transform="translate(211,23)"/>
<path d="M0 0 C2.31 0 4.62 0 7 0 C6.01 0.66 5.02 1.32 4 2 C4 3.32 4 4.64 4 6 C2.68 5.67 1.36 5.34 0 5 C0 3.35 0 1.7 0 0 Z " fill="#338BD7" transform="translate(192,23)"/>
<path d="M0 0 C1.65 0 3.3 0 5 0 C5 0.66 5 1.32 5 2 C4.01 2 3.02 2 2 2 C2 2.66 2 3.32 2 4 C2.66 4.33 3.32 4.66 4 5 C2.68 5 1.36 5 0 5 C0 3.35 0 1.7 0 0 Z " fill="#F46152" transform="translate(68,28)"/>
<path d="M0 0 C0.66 0.66 1.32 1.32 2 2 C0.75 3.5625 0.75 3.5625 -1 5 C-3.1875 4.6875 -3.1875 4.6875 -5 4 C-5 3.34 -5 2.68 -5 2 C-3.35 1.34 -1.7 0.68 0 0 Z " fill="#368DD6" transform="translate(133,12)"/>
<path d="M0 0 C0.33 1.32 0.66 2.64 1 4 C-0.98 4.99 -0.98 4.99 -3 6 C-3 3 -3 3 -1.5 1.3125 C-0.7575 0.6628125 -0.7575 0.6628125 0 0 Z " fill="#0772CE" transform="translate(75,53)"/>
</svg>
