<?xml version="1.0" encoding="UTF-8"?><svg id="Layer_1" xmlns="http://www.w3.org/2000/svg" viewBox="0 0 923.4 624.7"><defs><style>.cls-1{fill:#d11b4b;}</style></defs><path id="path1038" class="cls-1" d="M32.9,238.2c-8.9-2.6-18.6-20.7-2.6-31.6-17.4-6.8-20.8-24.9-20.8-24.9,0,0,14,14.8,38.7,14.8h818.7c24.7,0,38.7-14.8,38.7-14.8,0,0-3.4,18.1-20.8,24.9,16,10.9,6.2,29-2.6,31.6,5.1-10.1,2.1-24.6-18.3-24.6H51.3c-20.4,0-23.5,14.5-18.3,24.6h0Z"/><path class="cls-1" d="M117.4,358.7h-33.4l4.8-11.2v-32c0-2.9-2-4.8-4.8-4.8h-18.6v36.8l4.8,11.2h-33.6l4.8-11.2v-89.3l-4.8-11.1h57c11.6,0,19.1,7.5,19.1,19.1v23.7c0,5.5-6.9,10.6-15.6,11.1,10,1.5,15.6,7.7,15.6,12.9v33.6l4.8,11.2ZM88.7,289.9v-22.2c0-2.8-2-4.8-4.8-4.8h-18.6v31.7h18.6c2.8,0,4.8-1.8,4.8-4.8Z"/><path class="cls-1" d="M132.3,347.5l19.3-89.3-2.3-11.1h44.5l-2.5,11.1,19.4,89.3,7.1,11.2h-34l2.5-11.2-2.9-14.8h-23.7l-2.9,14.8,2.5,11.2h-34l7.2-11.2ZM180.5,316.7l-8.9-47-8.9,47h17.9Z"/><path class="cls-1" d="M231.3,347.5v-89.3l-4.8-11.1h31.7l22.9,66.7v-55.6l-4.8-11.1h33.6l-4.8,11.1v100.6h-28.8l-21.1-61.6v50.4l4.8,11.2h-33.6l4.8-11.2Z"/><path class="cls-1" d="M322.5,266.2c0-11.6,7.7-19.1,19.1-19.1h33.1c11.6,0,19.1,7.5,19.1,19.1v16.8l-23.9,7.9v-23.1c0-2.8-2-4.8-4.8-4.8h-13.9c-2.9,0-4.9,2-4.9,4.8v70.2c0,2.9,2,4.8,4.9,4.8h13.9c2.8,0,4.8-1.8,4.8-4.8v-22h-4.8l-10.6,6v-21.9h39.3v39.6c0,11.4-7.5,19.1-19.1,19.1h-33.1c-11.4,0-19.1-7.7-19.1-19.1v-73.5Z"/><path class="cls-1" d="M529.5,358.7h-33.4l4.8-11.2v-32c0-2.9-2-4.8-4.8-4.8h-18.6v36.8l4.8,11.2h-33.6l4.8-11.2v-89.3l-4.8-11.1h57c11.6,0,19.1,7.5,19.1,19.1v23.7c0,5.5-6.9,10.6-15.6,11.1,10,1.5,15.6,7.7,15.6,12.9v33.6l4.8,11.2ZM500.8,289.9v-22.2c0-2.8-2-4.8-4.8-4.8h-18.6v31.7h18.6c2.8,0,4.8-1.8,4.8-4.8Z"/><path class="cls-1" d="M544.4,347.5l19.3-89.3-2.3-11.1h44.5l-2.5,11.1,19.4,89.3,7.1,11.2h-34l2.5-11.2-2.9-14.8h-23.7l-2.9,14.8,2.5,11.2h-34l7.2-11.2ZM592.6,316.7l-8.9-47-8.9,47h17.9Z"/><path class="cls-1" d="M695.3,298.5c7.1,2.6,11.9,9.4,11.9,17.1v24c0,11.4-7.5,19.1-19.1,19.1h-31.4c-11.5,0-19.2-7.7-19.2-19.1v-28l24,8v18.3c0,2.9,1.8,4.8,4.8,4.8h12.3c2.8,0,4.8-1.8,4.8-4.8v-13.4c0-2.9-1.8-5.4-4.5-6.3l-31-11.1c-7.2-2.5-12-9.4-12-17.1v-23.9c0-11.6,7.7-19.1,19.1-19.1h31.6c11.4,0,19.1,7.5,19.1,19.1v28.5l-24-7.9v-19.1c0-2.8-1.8-4.8-4.8-4.8h-12.2c-2.9,0-4.9,2-4.9,4.8v13.4c0,2.9,1.8,5.5,4.6,6.5l31,10.9Z"/><path class="cls-1" d="M722.7,266.2c0-11.6,7.7-19.1,19.1-19.1h36.3c11.4,0,19.1,7.5,19.1,19.1v73.5c0,11.4-7.7,19.1-19.1,19.1h-36.3c-11.4,0-19.1-7.7-19.1-19.1v-73.5ZM768.5,342.7c2.9,0,4.9-1.8,4.9-4.8v-70.2c0-2.8-2-4.8-4.9-4.8h-16.9c-2.9,0-4.9,2-4.9,4.8v70.2c0,2.9,2,4.8,4.9,4.8h16.9Z"/><path class="cls-1" d="M814.5,347.5v-89.3l-4.8-11.1h33.6l-4.8,11.1v89.3l4.8,11.2h-33.6l4.8-11.2Z"/><path class="cls-1" d="M859.3,347.5v-89.3l-4.8-11.1h33.6l-4.8,11.1v89.3l4.8,11.2h-33.6l4.8-11.2Z"/><path id="path1039" class="cls-1" d="M32.9,376.2c-8.9,2.6-18.6,20.7-2.6,31.6-17.4,6.8-20.8,24.9-20.8,24.9,0,0,14-14.8,38.7-14.8h818.7c24.7,0,38.7,14.8,38.7,14.8,0,0-3.4-18.1-20.8-24.9,16-10.9,6.2-29-2.6-31.6,5.1,10.1,2.1,24.6-18.3,24.6H51.3c-20.4,0-23.5-14.5-18.3-24.6h0Z"/><path id="path1091" class="cls-1" d="M457.6,151s-10.3-74.3-59.9-63.2c-49.6,11.1-19.4,48.5-7.8,40.8,11.6-7.7.3-19.2-5.7-11-12.2-6,2.9-19.4,23-20.6,20-1.2,37.3,28.1,50.5,54ZM457.6,151s10.3-74.3,59.9-63.2c49.6,11.1,19.4,48.5,7.8,40.8-11.6-7.7-.3-19.2,5.7-11,12.2-6-2.9-19.4-23-20.6-20-1.2-37.3,28.1-50.5,54ZM457.6,467.7s-10.3,74.3-59.9,63.2c-49.6-11.1-19.4-48.5-7.8-40.8,11.6,7.7.3,19.2-5.7,11-12.2,6,2.9,19.4,23,20.6,20,1.2,37.3-28.1,50.5-54ZM457.6,467.7s10.3,74.3,59.9,63.2c49.6-11.1,19.4-48.5,7.8-40.8-11.6,7.7-.3,19.2,5.7,11,12.2,6-2.9,19.4-23,20.6-20,1.2-37.3-28.1-50.5-54Z"/><path id="path1092" class="cls-1" d="M415.5,128.5c-.5-3,2.9-6.1,9.2-4.9,9.5,1.9,19.7,21.5,13.8,35-6,13.4-15.8,23.3-41.4,20.2-25.6-3.1-53.8-30.8-74.7-38.3-20.9-7.5-26.8,9-21.5,14.2-13.5-.2-14.4-17.3-6.4-23.1-19.6-7.8-36.5,16.9-29,27.6,7.5,10.7,14.9,14.9,25.6,13.4,10.7-1.5,7-1.4.3-4.9-6.6-3.5-1.8-13.8,7.8-6.1,9.6,7.7,5.8,18.9-12.1,20.6-17.9,1.7-36-12.8-37.2-29.3-1.2-16.6,16.4-35.6,31.6-38.1,15.2-2.5,30.1-2,59,18.1,28.9,20.2,44.2,34.3,62.1,36.2,17.9,1.9,29.4-6.2,31.7-16.1,1.7-7.2-3.5-17.4-9-20.4-4.3-2.4-8.8,2.1-9.9-4.2h0ZM499.6,128.5c.5-3-2.9-6.1-9.2-4.9-9.5,1.9-19.7,21.5-13.8,35,6,13.4,15.8,23.3,41.4,20.2,25.6-3.1,53.8-30.8,74.7-38.3,20.9-7.5,26.8,9,21.5,14.2,13.5-.2,14.4-17.3,6.4-23.1,19.6-7.8,36.5,16.9,29,27.6-7.5,10.7-14.9,14.9-25.6,13.4-10.7-1.5-7-1.4-.3-4.9,6.6-3.5,1.8-13.8-7.8-6.1-9.6,7.7-5.8,18.9,12.1,20.6,17.9,1.7,36-12.8,37.2-29.3,1.2-16.6-16.4-35.6-31.6-38.1-15.2-2.5-30.1-2-59,18.1-28.9,20.2-44.2,34.3-62.1,36.2-17.9,1.9-29.4-6.2-31.7-16.1-1.7-7.2,3.5-17.4,9-20.4,4.3-2.4,8.8,2.1,9.9-4.2h0ZM415.5,490.2c-.5,3,2.9,6.1,9.2,4.9,9.5-1.9,19.7-21.5,13.8-35-6-13.4-15.8-23.3-41.4-20.2-25.6,3.1-53.8,30.8-74.7,38.3-20.9,7.5-26.8-9-21.5-14.2-13.5.2-14.4,17.3-6.4,23.1-19.6,7.8-36.5-16.9-29-27.6,7.5-10.7,14.9-14.9,25.6-13.4,10.7,1.5,7,1.4.3,4.9-6.6,3.5-1.8,13.8,7.8,6.1,9.6-7.7,5.8-18.9-12.1-20.6-17.9-1.7-36,12.8-37.2,29.3-1.2,16.6,16.4,35.6,31.6,38.1,15.2,2.5,30.1,2,59-18.1,28.9-20.2,44.2-34.3,62.1-36.2,17.9-1.9,29.4,6.2,31.7,16.1,1.7,7.2-3.5,17.4-9,20.4-4.3,2.4-8.8-2.1-9.9,4.2h0ZM499.6,490.2c.5,3-2.9,6.1-9.2,4.9-9.5-1.9-19.7-21.5-13.8-35,6-13.4,15.8-23.3,41.4-20.2,25.6,3.1,53.8,30.8,74.7,38.3,20.9,7.5,26.8-9,21.5-14.2,13.5.2,14.4,17.3,6.4,23.1,19.6,7.8,36.5-16.9,29-27.6-7.5-10.7-14.9-14.9-25.6-13.4-10.7,1.5-7,1.4-.3,4.9,6.6,3.5,1.8,13.8-7.8,6.1-9.6-7.7-5.8-18.9,12.1-20.6,17.9-1.7,36,12.8,37.2,29.3,1.2,16.6-16.4,35.6-31.6,38.1-15.2,2.5-30.1,2-59-18.1-28.9-20.2-44.2-34.3-62.1-36.2-17.9-1.9-29.4,6.2-31.7,16.1-1.7,7.2,3.5,17.4,9,20.4,4.3,2.4,8.8-2.1,9.9,4.2h0Z"/><path id="path1093" class="cls-1" d="M369.1,175.9s-31.9-27.2-46.4-24.9c-14.5,2.3-14,19.7-5.9,21.8,8.1,2.1,14.9-7.4,6.6-11.6-1.2-8.9,38.3,14,45.6,14.7ZM546,175.9s31.9-27.2,46.4-24.9c14.5,2.3,14,19.7,5.9,21.8-8.1,2.1-14.9-7.4-6.6-11.6,1.2-8.9-38.3,14-45.6,14.7ZM369.1,442.8s-31.9,27.2-46.4,24.9c-14.5-2.3-14-19.7-5.9-21.8,8.1-2.1,14.9,7.4,6.6,11.6-1.2,8.9,38.3-14.1,45.6-14.7ZM546,442.8s31.9,27.2,46.4,24.9c14.5-2.3,14-19.7,5.9-21.8-8.1-2.1-14.9,7.4-6.6,11.6,1.2,8.9-38.3-14.1-45.6-14.7Z"/><path id="path1094" class="cls-1" d="M350.3,173.3s-9.6-3-15.6,0c-6,3.1-15.6,7.7-21.6,1.3,1.7,7.6,13,10.2,20.7,7.8,7.7-2.4,13-8.4,16.4-9.2h0ZM564.8,173.3s9.6-3,15.6,0c6,3.1,15.6,7.7,21.6,1.3-1.7,7.6-13,10.2-20.7,7.8-7.7-2.4-13-8.4-16.4-9.2h0ZM350.3,445.4s-9.6,3-15.6,0c-6-3.1-15.6-7.7-21.6-1.3,1.7-7.6,13-10.2,20.7-7.8,7.7,2.4,13,8.4,16.4,9.2h0ZM564.8,445.4s9.6,3,15.6,0c6-3.1,15.6-7.7,21.6-1.3-1.7-7.6-13-10.2-20.7-7.8-7.7,2.4-13,8.4-16.4,9.2h0Z"/><path id="path1095" class="cls-1" d="M261.8,186.7H78.6c-29.9,0-60.8-9.2-62-41.8-1.2-32.6,31.5-50.2,50.1-37.5,18.6,12.7,6.9,27.1-2.8,24.5-9.7-2.6-8.9-9.7-1.5-13.8-17.2-9.7-27.5,1.6-33.7,16.8-6.1,15.2,4.9,35.4,30.2,41.3,25.4,6,182.3.8,202.8,10.5h0ZM653.4,186.7h183.1c29.9,0,60.8-9.2,62-41.8,1.2-32.6-31.5-50.2-50.1-37.5-18.6,12.7-6.9,27.1,2.8,24.5,9.7-2.6,8.9-9.7,1.5-13.8,17.2-9.7,27.5,1.6,33.7,16.8,6.1,15.2-4.9,35.4-30.2,41.3-25.4,6-182.3.8-202.8,10.5h0ZM261.8,432.1H78.6c-29.9,0-60.8,9.2-62,41.8-1.2,32.6,31.5,50.2,50.1,37.5,18.6-12.7,6.9-27.1-2.8-24.5-9.7,2.6-8.9,9.7-1.5,13.8-17.2,9.7-27.5-1.6-33.7-16.8-6.1-15.2,4.9-35.4,30.2-41.3,25.4-6,182.3-.8,202.8-10.5h0ZM653.4,432.1h183.1c29.9,0,60.8,9.2,62,41.8,1.2,32.6-31.5,50.2-50.1,37.5-18.6-12.7-6.9-27.1,2.8-24.5,9.7,2.6,8.9,9.7,1.5,13.8,17.2,9.7,27.5-1.6,33.7-16.8,6.1-15.2-4.9-35.4-30.2-41.3-25.4-6-182.3-.8-202.8-10.5h0Z"/><path id="path1096" class="cls-1" d="M252,178.5s-23.3-4-51.6-4.1c-28.3-.1-95.9-3.5-107.4-3-11.5.6-21.1-12.8-7.3-25.1,5.6,10.5,9.3,13.7,30.1,13.6,20.8,0,109.9,0,136.2,18.5ZM663.1,178.5s23.3-4,51.6-4.1c28.3-.1,95.9-3.5,107.4-3,11.5.6,21.1-12.8,7.3-25.1-5.6,10.5-9.3,13.7-30.1,13.6-20.8,0-109.9,0-136.2,18.5h0ZM252,440.2s-23.3,4-51.6,4.1c-28.3.1-95.9,3.5-107.4,3-11.5-.6-21.1,12.8-7.3,25.1,5.6-10.5,9.3-13.7,30.1-13.6,20.8,0,109.9,0,136.2-18.5ZM663.1,440.2s23.3,4,51.6,4.1c28.3.1,95.9,3.5,107.4,3,11.5-.6,21.1,12.8,7.3,25.1-5.6-10.5-9.3-13.7-30.1-13.6-20.8,0-109.9,0-136.2-18.5h0Z"/><path id="path1097" class="cls-1" d="M245.7,168c-16-10.5-68.6-12.8-85-10.6,23.5-11.7,33.9-12,45.7-11.3-5.6-9.6-4.9-19-1.1-23.6,12.7,6.1,19.9,20.9,23.6,27.6.5-11.7,9.7-29.9,31.5-27.6-21.1,9.3-20.4,35.7-14.7,45.6h0ZM669.5,168c16-10.5,68.6-12.8,85-10.6-23.5-11.7-33.9-12-45.7-11.3,5.6-9.6,4.9-19,1.1-23.6-12.7,6.1-19.9,20.9-23.6,27.6-.5-11.7-9.7-29.9-31.5-27.6,21.1,9.3,20.4,35.7,14.7,45.6h0ZM245.7,450.7c-16,10.5-68.6,12.8-85,10.6,23.5,11.7,33.9,12,45.7,11.3-5.6,9.6-4.9,19-1.1,23.6,12.7-6.1,19.9-20.9,23.6-27.6.5,11.7,9.7,29.9,31.5,27.6-21.1-9.3-20.4-35.7-14.7-45.6h0ZM669.5,450.7c16,10.5,68.6,12.8,85,10.6-23.5,11.7-33.9,12-45.7,11.3,5.6,9.6,4.9,19,1.1,23.6-12.7-6.1-19.9-20.9-23.6-27.6-.5,11.7-9.7,29.9-31.5,27.6,21.1-9.3,20.4-35.7,14.7-45.6h0Z"/><path id="path1098" class="cls-1" d="M408.3,146.4c-2.6-4,.4-7.2,4-7.8,2.8-.5,5.4,0,7.1,1.3,2.8,2.3,2.9,4.6,2.5,7.8-.9,6.1-7.5,13.2-19.2,11.8-17.6-2-69.7-46.9-84.5-53.4-14.8-6.5-34.3-2.4-41.5,3.6,7.2-14.6,35-17.8,49.2-11.5,14.2,6.3,21.7,14.2,21.7,14.2,0,0-8.2-11.4,1.8-13.9,10-2.5,12.2,8.4,16.2,20.1,4,11.7,16.9,24.4,27.7,31.2,10.8,6.8,18.1,6.9,21.5,1.9,3.4-5,.8-8.1-1.3-7.8-2.1.3-.6,1.3-.4,2.1.3,1.1-2.1,3.6-4.9.3h0ZM506.8,146.4c2.6-4-.4-7.2-4-7.8-2.8-.5-5.4,0-7.1,1.3-2.8,2.3-2.9,4.6-2.5,7.8.9,6.1,7.6,13.2,19.2,11.8,17.6-2,69.7-46.9,84.5-53.4,14.8-6.5,34.3-2.4,41.5,3.6-7.2-14.6-35-17.8-49.2-11.5-14.2,6.3-21.7,14.2-21.7,14.2,0,0,8.2-11.4-1.8-13.9-10-2.5-12.2,8.4-16.2,20.1-4,11.7-16.9,24.4-27.7,31.2-10.8,6.8-18.1,6.9-21.5,1.9-3.4-5-.8-8.1,1.3-7.8,2.1.3.6,1.3.4,2.1-.3,1.1,2.1,3.6,4.9.3h0ZM408.3,472.3c-2.6,4,.4,7.2,4,7.8,2.8.5,5.4,0,7.1-1.3,2.8-2.3,2.9-4.6,2.5-7.8-.9-6.1-7.5-13.2-19.2-11.8-17.6,2-69.7,46.9-84.5,53.4-14.8,6.5-34.3,2.4-41.5-3.6,7.2,14.6,35,17.8,49.2,11.5,14.2-6.3,21.7-14.2,21.7-14.2,0,0-8.2,11.4,1.8,13.9,10,2.5,12.2-8.4,16.2-20.1,4-11.7,16.9-24.4,27.7-31.2,10.8-6.8,18.1-6.9,21.5-1.9,3.4,5,.8,8.1-1.3,7.8-2.1-.3-.6-1.3-.4-2.1.3-1.1-2.1-3.6-4.9-.3h0ZM506.8,472.3c2.6,4-.4,7.2-4,7.8-2.8.5-5.4,0-7.1-1.3-2.8-2.3-2.9-4.6-2.5-7.8.9-6.1,7.6-13.2,19.2-11.8,17.6,2,69.7,46.9,84.5,53.4,14.8,6.5,34.3,2.4,41.5-3.6-7.2,14.6-35,17.8-49.2,11.5-14.2-6.3-21.7-14.2-21.7-14.2,0,0,8.2,11.4-1.8,13.9-10,2.5-12.2-8.4-16.2-20.1-4-11.7-16.9-24.4-27.7-31.2-10.8-6.8-18.1-6.9-21.5-1.9-3.4,5-.8,8.1,1.3,7.8,2.1-.3.6-1.3.4-2.1-.3-1.1,2.1-3.6,4.9-.3h0Z"/><path id="path1099" class="cls-1" d="M450.3,106.7s-26.2-45.2-60.4-22c9.8-19.7,36.6-14,44.2-6.5-1.8-14.1-9.9-11.3-17.6-19.6-7.7-8.3-4.2-24.4,7.6-24.6,11.8-.3,13.2,12.1,6.9,12.5-6.3.5-9-6-9-6,0,0-6,7.5-.3,12.4,5.7,4.9,13.5,7.5,20.9,17.2,7.4,9.6,5.1,27,7.7,36.6h0ZM464.8,106.7s26.2-45.2,60.4-22c-9.8-19.7-36.6-14-44.2-6.5,1.8-14.1,9.9-11.3,17.6-19.6,7.7-8.3,4.2-24.4-7.6-24.6-11.8-.3-13.2,12.1-6.9,12.5,6.3.5,9-6,9-6,0,0,6,7.5.3,12.4-5.7,4.9-13.5,7.5-20.9,17.2-7.4,9.6-5.1,27-7.7,36.6h0ZM450.3,512.1s-26.2,45.2-60.4,22c9.8,19.7,36.6,14,44.2,6.5-1.8,14.1-9.9,11.3-17.6,19.6-7.7,8.3-4.2,24.4,7.6,24.6,11.8.3,13.2-12.1,6.9-12.5-6.3-.5-9,6-9,6,0,0-6-7.5-.3-12.4,5.7-4.9,13.5-7.5,20.9-17.2,7.4-9.6,5.1-27,7.7-36.6h0ZM464.8,512.1s26.2,45.2,60.4,22c-9.8,19.7-36.6,14-44.2,6.5,1.8,14.1,9.9,11.3,17.6,19.6,7.7,8.3,4.2,24.4-7.6,24.6-11.8.3-13.2-12.1-6.9-12.5,6.3-.5,9,6,9,6,0,0,6-7.5.3-12.4-5.7-4.9-13.5-7.5-20.9-17.2-7.4-9.6-5.1-27-7.7-36.6h0Z"/><path id="path1100" class="cls-1" d="M433.2,53.3c9.1,0,15.9-13.1,6.5-23.9-9.5-10.7-30.1-6.6-34,4-3.8,10.6,0,19.7,3.9,23.8-15.5-5.3-19.7-28.2,2.1-39.1,21.8-10.9,37.4,5.6,40.5,19.6,3.1,14-8.3,14.1-19.1,15.5ZM481.9,53.3c-9.1,0-15.9-13.1-6.5-23.9,9.5-10.7,30.1-6.6,34,4,3.8,10.6,0,19.7-3.9,23.8,15.5-5.3,19.7-28.2-2.1-39.1-21.8-10.9-37.4,5.6-40.5,19.6-3.1,14,8.3,14.1,19.1,15.5ZM433.2,565.5c9.1,0,15.9,13.1,6.5,23.9-9.5,10.7-30.1,6.6-34-4-3.8-10.6,0-19.7,3.9-23.8-15.5,5.3-19.7,28.2,2.1,39.1,21.8,10.9,37.4-5.6,40.5-19.6,3.1-14-8.3-14.1-19.1-15.5ZM481.9,565.5c-9.1,0-15.9,13.1-6.5,23.9,9.5,10.7,30.1,6.6,34-4,3.8-10.6,0-19.7-3.9-23.8,15.5,5.3,19.7,28.2-2.1,39.1-21.8,10.9-37.4-5.6-40.5-19.6-3.1-14,8.3-14.1,19.1-15.5Z"/></svg>