<svg width="22" height="19" viewBox="0 0 22 19" fill="none" xmlns="http://www.w3.org/2000/svg">
<path d="M10.5888 3.45185L10.9182 3.72665L11.2267 3.42862C13.202 1.52038 15.6442 1.06072 17.5624 1.71023C19.464 2.35413 20.9214 4.1098 20.9214 6.81703C20.9214 8.12936 20.3249 9.51783 19.3661 10.8914C18.4114 12.2591 17.1291 13.5673 15.8314 14.7089C14.536 15.8486 13.2383 16.8111 12.2634 17.4892C11.7764 17.8279 11.3709 18.0949 11.0879 18.2768C11.0154 18.3234 10.951 18.3645 10.8952 18.3996C10.8395 18.3643 10.7749 18.3231 10.7023 18.2763C10.4193 18.0938 10.0138 17.826 9.52675 17.4864C8.55176 16.8066 7.25402 15.842 5.95846 14.7008C4.66073 13.5577 3.37823 12.2488 2.4235 10.882C1.46451 9.50907 0.868283 8.12349 0.868283 6.81703C0.868283 4.09849 2.20073 2.3728 4.0132 1.74205C5.84968 1.10294 8.30373 1.54532 10.5888 3.45185Z" stroke="#F07054" stroke-width="0.955317" fill="#F07054"/>
</svg>
