<svg width="93" height="95" viewBox="0 0 93 95" fill="none" xmlns="http://www.w3.org/2000/svg">
<ellipse cx="46.5" cy="47.5" rx="46.5" ry="47" fill="url(#paint0_linear_1114_6653)"/>
<path d="M48.7869 58.186C49.2675 58.6112 49.808 58.7933 50.3486 58.7933C51.0093 58.7933 51.6701 58.4897 52.1507 57.9434L59.7192 49.0789C60.5002 48.1683 60.5002 46.8326 59.7192 45.9216L52.1507 37.0576C51.3098 36.0255 49.7482 35.9039 48.787 36.8149C47.7659 37.6649 47.6456 39.2432 48.5469 40.2148L52.6917 45.072L37.4944 45.0716C36.1729 45.0716 35.0919 46.1642 35.0919 47.5C35.0919 48.8357 36.1729 49.9283 37.4944 49.9283H52.6917L48.5469 54.7856C47.6461 55.8181 47.7663 57.3359 48.7874 58.1859L48.7869 58.186Z" fill="white"/>
<path d="M66.2663 39.668C66.7469 40.8821 68.1887 41.4895 69.39 41.0037C70.5913 40.5179 71.1922 39.0606 70.7115 37.8464C66.8073 28.193 57.6166 22 47.3449 22C33.4091 22 22.1162 33.4143 22.1162 47.5C22.1162 61.5857 33.4091 73 47.3449 73C57.6168 73 66.8071 66.807 70.7115 57.1535C71.1921 55.9394 70.6516 54.482 69.39 53.9963C68.1887 53.5105 66.7469 54.0569 66.2663 55.332C63.0827 63.1039 55.6944 68.1427 47.3448 68.1427C36.112 68.1427 26.9216 58.8534 26.9216 47.4999C26.9216 36.1463 36.112 26.857 47.3448 26.857C55.6943 26.8566 63.0827 31.896 66.2663 39.6677V39.668Z" fill="white"/>
<defs>
<linearGradient id="paint0_linear_1114_6653" x1="46.5" y1="0.5" x2="46.5" y2="94.5" gradientUnits="userSpaceOnUse">
<stop stop-color="#ef3400"/>
<stop offset="0.508333" stop-color="#ef3400" stop-opacity="0.76"/>
<stop offset="1" stop-color="#ef3400" stop-opacity="0.77"/>
</linearGradient>
</defs>
</svg>
