<svg width="261" height="261" viewBox="0 0 261 261" fill="none" xmlns="http://www.w3.org/2000/svg">
<path d="M167.56 101.904C166.429 101.904 165.538 102.867 165.61 103.998C165.658 104.696 165.682 105.418 165.682 106.141C165.682 125.737 149.745 141.602 130.173 141.578C110.577 141.578 94.7121 125.641 94.7362 106.068C94.7362 105.346 94.7603 104.648 94.8084 103.926C94.8806 102.794 93.9899 101.807 92.8584 101.807H67.2677C66.1121 101.783 65.1973 102.77 65.2936 103.926C68.1584 135.318 91.751 156.528 114.621 177.087C118.69 180.746 122.758 184.406 126.682 188.089L128.777 190.063C129.523 190.785 130.703 190.785 131.473 190.063L133.568 188.113C137.492 184.43 141.56 180.794 145.653 177.135C168.571 156.624 192.188 135.439 195.125 104.07C195.221 102.915 194.331 101.904 193.175 101.904H167.584H167.56Z" fill="#E83700"/>
<path d="M192.525 99.5926C193.97 99.5926 195.173 98.437 195.197 96.9926C195.197 96.8481 195.197 96.7037 195.173 96.5592C190.238 67.8148 167.079 45.6907 138.166 42.0555V39.4315C139.731 38.4926 140.742 36.8074 140.814 34.9778C140.814 31.15 136.384 28.3815 130.27 28.3815C124.155 28.3815 119.725 31.15 119.725 34.9537C119.797 36.7833 120.784 38.4685 122.349 39.4074V42.0315C93.4121 45.6426 70.2529 67.7185 65.2455 96.4389C65.0288 97.8833 66.0158 99.2315 67.4603 99.4481C67.6047 99.4481 67.7492 99.4722 67.8936 99.4722L192.549 99.5926H192.525ZM105.184 64.1074C98.0343 68.2963 92.0158 74.1463 87.6343 81.1759C87.1529 81.9463 86.3103 82.4277 85.3955 82.4277C84.914 82.4277 84.4084 82.2833 83.9992 82.0426C82.7714 81.2722 82.3862 79.6592 83.1566 78.4074C87.9955 70.6555 94.664 64.1796 102.56 59.5574C103.86 58.8833 105.449 59.3889 106.123 60.6648C106.749 61.8685 106.364 63.3852 105.208 64.1074H105.184ZM114.645 59.9907L112.695 60.6648C112.407 60.7852 112.094 60.8574 111.781 60.8574C110.673 60.8574 109.686 60.1833 109.301 59.1481C108.795 57.7759 109.47 56.2592 110.842 55.7537L113.008 54.9833C114.381 54.4777 115.897 55.1759 116.403 56.5481C116.908 57.9203 116.21 59.437 114.838 59.9426C114.766 59.9426 114.718 59.9907 114.645 60.0148V59.9907Z" fill="#004939"/>
<path d="M51.2584 222.852V205.446H44.3973V201.402H63.1029V205.446H56.2418V222.852H51.2825H51.2584Z" fill="#004939"/>
<path d="M69.4102 223.093C68.1343 223.093 67.0269 222.876 66.088 222.443C65.1732 222.009 64.4751 221.407 63.9695 220.661C63.4639 219.915 63.2232 219.048 63.2232 218.109C63.2232 217.17 63.4639 216.28 63.9454 215.533C64.4269 214.787 65.1973 214.209 66.2325 213.8C67.2677 213.391 68.6399 213.174 70.301 213.174H74.6825V215.967H70.8306C69.6991 215.967 68.9288 216.159 68.5195 216.52C68.1102 216.881 67.8936 217.339 67.8936 217.893C67.8936 218.446 68.1343 219 68.6158 219.337C69.0973 219.698 69.7473 219.867 70.5899 219.867C71.4325 219.867 72.1065 219.674 72.7325 219.289C73.3584 218.904 73.8158 218.35 74.1047 217.628L74.851 219.843C74.514 220.902 73.864 221.72 72.9491 222.274C72.0343 222.828 70.8547 223.093 69.3862 223.093H69.4102ZM74.4417 222.852V219.626L74.1288 218.928V213.174C74.1288 212.163 73.8158 211.344 73.1899 210.791C72.564 210.213 71.601 209.924 70.3251 209.924C69.0491 209.924 68.5917 210.068 67.7251 210.333C66.8825 210.598 66.1602 210.983 65.5584 211.441L63.8491 208.094C64.7399 207.469 65.8232 206.963 67.0991 206.626C68.3751 206.289 69.651 206.096 70.951 206.096C73.4547 206.096 75.4047 206.698 76.801 207.878C78.1973 209.057 78.8954 210.911 78.8954 213.415V222.828H74.4177L74.4417 222.852Z" fill="#004939"/>
<path d="M88.501 223.093C87.0806 223.093 85.7325 222.924 84.4325 222.587C83.1325 222.25 82.0973 221.817 81.351 221.311L82.9399 217.869C83.6862 218.35 84.601 218.711 85.6121 219.024C86.6473 219.313 87.6584 219.457 88.6695 219.457C89.6806 219.457 90.5473 219.337 91.0047 219.048C91.4621 218.783 91.7029 218.422 91.7029 217.941C91.7029 217.459 91.5343 217.267 91.1732 217.074C90.8121 216.881 90.3306 216.737 89.7529 216.641C89.151 216.544 88.501 216.448 87.8029 216.328C87.1047 216.207 86.3825 216.087 85.6843 215.919C84.9621 215.75 84.3121 215.485 83.7103 215.148C83.1084 214.811 82.651 214.33 82.2899 213.728C81.9288 213.126 81.7603 212.38 81.7603 211.417C81.7603 210.454 82.0732 209.467 82.6751 208.648C83.2769 207.854 84.1436 207.228 85.2992 206.77C86.4547 206.313 87.8029 206.072 89.4158 206.072C91.0288 206.072 91.6788 206.193 92.8584 206.433C94.014 206.674 95.001 207.035 95.7714 207.517L94.1825 210.911C93.388 210.43 92.5936 210.117 91.7751 209.948C90.9566 209.78 90.1862 209.683 89.4399 209.683C88.6936 209.683 87.6103 209.828 87.1047 210.117C86.6232 210.406 86.3584 210.767 86.3584 211.224C86.3584 211.681 86.5269 211.946 86.8881 212.139C87.2492 212.356 87.7306 212.5 88.3084 212.62C88.9103 212.741 89.5603 212.861 90.2584 212.933C90.9566 213.03 91.6788 213.174 92.3769 213.343C93.0992 213.535 93.7492 213.776 94.3269 214.113C94.9047 214.45 95.3862 214.907 95.7473 215.485C96.1084 216.063 96.301 216.833 96.301 217.772C96.301 218.711 95.988 219.698 95.3862 220.493C94.7843 221.287 93.8936 221.889 92.738 222.346C91.5825 222.804 90.1862 223.02 88.5251 223.02L88.501 223.093Z" fill="#004939"/>
<path d="M96.9991 210.406V206.722H108.434V210.406H96.9991ZM105.69 223.093C103.74 223.093 102.247 222.587 101.164 221.6C100.081 220.613 99.551 219.12 99.551 217.17V202.702H104.342V217.122C104.342 217.82 104.534 218.35 104.895 218.735C105.257 219.12 105.762 219.313 106.388 219.313C107.014 219.313 107.784 219.12 108.314 218.711L109.59 222.081C109.108 222.418 108.507 222.683 107.832 222.852C107.158 223.02 106.436 223.117 105.69 223.117V223.093Z" fill="#004939"/>
<path d="M119.677 223.093C117.799 223.093 116.138 222.731 114.718 221.985C113.297 221.239 112.19 220.252 111.42 218.976C110.649 217.7 110.264 216.231 110.264 214.618C110.264 213.006 110.649 211.489 111.42 210.213C112.19 208.937 113.225 207.926 114.573 207.204C115.897 206.481 117.414 206.12 119.075 206.12C120.736 206.12 122.157 206.457 123.432 207.156C124.732 207.83 125.768 208.817 126.514 210.093C127.26 211.368 127.645 212.909 127.645 214.667C127.645 216.424 127.645 215.052 127.621 215.293C127.621 215.533 127.573 215.75 127.549 215.943H114.164V213.15H125.045L123.216 213.968C123.216 213.102 123.047 212.356 122.686 211.73C122.349 211.104 121.868 210.598 121.242 210.237C120.64 209.876 119.918 209.707 119.099 209.707C118.281 209.707 117.558 209.876 116.932 210.237C116.307 210.598 115.825 211.104 115.488 211.73C115.151 212.38 114.958 213.126 114.958 214.017V214.763C114.958 215.654 115.151 216.448 115.56 217.146C115.97 217.82 116.523 218.35 117.245 218.711C117.968 219.072 118.834 219.241 119.797 219.241C120.76 219.241 121.458 219.096 122.108 218.831C122.782 218.567 123.384 218.157 123.938 217.628L126.49 220.396C125.744 221.263 124.781 221.913 123.649 222.37C122.494 222.828 121.194 223.068 119.701 223.068L119.677 223.093Z" fill="#004939"/>
<path d="M144.257 222.852H139.297V201.402H155.523V205.398H144.281V222.876L144.257 222.852ZM143.895 211.056H154.199V215.052H143.895V211.056Z" fill="#004939"/>
<path d="M158.268 222.852V200.102H163.058V222.852H158.268Z" fill="#004939"/>
<path d="M175.408 223.093C173.531 223.093 171.87 222.731 170.449 221.985C169.029 221.239 167.921 220.252 167.151 218.976C166.381 217.7 165.995 216.231 165.995 214.618C165.995 213.006 166.381 211.489 167.151 210.213C167.921 208.937 168.957 207.926 170.305 207.204C171.629 206.481 173.145 206.12 174.807 206.12C176.468 206.12 177.888 206.457 179.164 207.156C180.464 207.83 181.499 208.817 182.245 210.093C182.992 211.368 183.377 212.909 183.377 214.667C183.377 216.424 183.377 215.052 183.353 215.293C183.353 215.533 183.305 215.75 183.281 215.943H169.895V213.15H180.777L178.947 213.968C178.947 213.102 178.779 212.356 178.418 211.73C178.081 211.104 177.599 210.598 176.973 210.237C176.371 209.876 175.649 209.707 174.831 209.707C174.012 209.707 173.29 209.876 172.664 210.237C172.038 210.598 171.557 211.104 171.22 211.73C170.883 212.356 170.69 213.126 170.69 214.017V214.763C170.69 215.654 170.883 216.448 171.292 217.146C171.701 217.82 172.255 218.35 172.977 218.711C173.699 219.072 174.566 219.241 175.529 219.241C176.492 219.241 177.19 219.096 177.84 218.831C178.514 218.567 179.116 218.157 179.67 217.628L182.221 220.396C181.475 221.263 180.512 221.913 179.381 222.37C178.225 222.828 176.925 223.068 175.433 223.068L175.408 223.093Z" fill="#004939"/>
<path d="M194.475 223.093C192.597 223.093 190.936 222.731 189.516 221.985C188.095 221.239 186.988 220.252 186.218 218.976C185.447 217.7 185.062 216.231 185.062 214.618C185.062 213.006 185.447 211.489 186.218 210.213C186.988 208.937 188.023 207.926 189.371 207.204C190.695 206.481 192.212 206.12 193.873 206.12C195.534 206.12 196.955 206.457 198.231 207.156C199.531 207.83 200.566 208.817 201.312 210.093C202.058 211.368 202.444 212.909 202.444 214.667C202.444 216.424 202.444 215.052 202.42 215.293C202.42 215.533 202.371 215.75 202.347 215.943H188.962V213.15H199.844L198.014 213.968C198.014 213.102 197.845 212.356 197.484 211.73C197.147 211.104 196.666 210.598 196.04 210.237C195.438 209.876 194.716 209.707 193.897 209.707C193.079 209.707 192.357 209.876 191.731 210.237C191.105 210.598 190.623 211.104 190.286 211.73C189.949 212.356 189.757 213.126 189.757 214.017V214.763C189.757 215.654 189.949 216.448 190.358 217.146C190.768 217.82 191.321 218.35 192.044 218.711C192.766 219.072 193.632 219.241 194.595 219.241C195.558 219.241 196.257 219.096 196.907 218.831C197.581 218.567 198.183 218.157 198.736 217.628L201.288 220.396C200.542 221.263 199.579 221.913 198.447 222.37C197.292 222.828 195.992 223.068 194.499 223.068L194.475 223.093Z" fill="#004939"/>
<path d="M203.407 210.406V206.722H214.842V210.406H203.407ZM212.121 223.093C210.171 223.093 208.679 222.587 207.595 221.6C206.512 220.613 205.982 219.12 205.982 217.17V202.702H210.773V217.122C210.773 217.82 210.966 218.35 211.327 218.735C211.688 219.12 212.194 219.313 212.82 219.313C213.445 219.313 214.216 219.12 214.745 218.711L216.045 222.081C215.564 222.418 214.962 222.683 214.288 222.852C213.614 223.02 212.892 223.117 212.17 223.117L212.121 223.093Z" fill="#004939"/>
</svg>
