<?xml version="1.0" encoding="iso-8859-1"?>
<!-- Uploaded to: SVG Repo, www.svgrepo.com, Generator: SVG Repo Mixer Tools -->
<!DOCTYPE svg PUBLIC "-//W3C//DTD SVG 1.1//EN" "http://www.w3.org/Graphics/SVG/1.1/DTD/svg11.dtd">
<svg fill="#006b2b" version="1.1" id="Capa_1" xmlns="http://www.w3.org/2000/svg" xmlns:xlink="http://www.w3.org/1999/xlink" 
	 width="800px" height="800px" viewBox="0 0 903.1 903.1" xml:space="preserve"
	>
<g>
	<g>
		<path d="M635.851,0H266.15c-21.8,0-36.3,22.5-27.4,42.3l89.2,197.9h241.299l93.602-197.4C672.45,23,657.851,0,635.851,0z"/>
		<path d="M895.55,853V733.899c0-49.5-17.5-97.5-49.5-135.399L569.351,270.3h-117.8h-123.5l-272.2,328.6
			c-31.2,37.7-48.3,85.101-48.3,134v120.2c0,27.601,22.4,50,50,50h394h394C873.149,903,895.55,880.6,895.55,853z M544.149,766.3
			H329.85c-10,0-19.3-5.5-24.101-14.3c-4.8-8.8-4.5-19.5,0.9-28c18.1-28.4,30.9-59.601,40.1-90H331.55c-15.2,0-27.5-12.3-27.5-27.5
			s12.3-27.5,27.5-27.5h28.399c10.601-57.9,9.3-103,9.3-103.8c-0.3-7.4,2.5-14.7,7.7-20.101c5.2-5.399,12.3-8.399,19.8-8.399h135.8
			c15.199,0,27.5,12.3,27.5,27.5v53.3c0,15.2-12.301,27.5-27.5,27.5s-27.5-12.3-27.5-27.5v-25.8h-81.1c-0.8,19-2.8,46.1-8,77.3
			h40.799c15.201,0,27.5,12.3,27.5,27.5s-12.299,27.5-27.5,27.5H404.05c-6.801,25.3-15.801,51.6-27.9,77.3h168
			c15.201,0,27.5,12.3,27.5,27.5S559.249,766.3,544.149,766.3z"/>
	</g>
</g>
</svg>