<?xml version="1.0" encoding="UTF-8"?>
<svg width="857px" height="126px" viewBox="0 0 857 126" version="1.1" xmlns="http://www.w3.org/2000/svg" xmlns:xlink="http://www.w3.org/1999/xlink">
    <title>tp+logo_dark</title>
    <g id="Page-1" stroke="none" stroke-width="1" fill="none" fill-rule="evenodd">
        <g id="tp+logo_dark" transform="translate(-0, 0.0012)" fill-rule="nonzero">
            <path d="M152.27333,91.483731 C152.27333,95.4613309 155.565329,98.7541309 159.542663,98.7541309 C163.518663,98.7541309 166.810662,95.4613309 166.810662,91.483731 L166.810662,79.9613313 L172.983996,79.9613313 C176.413329,79.9613313 179.155996,77.2197314 179.155996,73.7894648 C179.155996,70.3613316 176.413329,67.6175983 172.983996,67.6175983 L166.810662,67.6175983 L166.810662,34.4259991 C166.810662,31.2707992 169.554662,29.4883993 172.023996,29.4883993 C175.589329,29.4883993 178.470662,26.606666 178.470662,23.0431994 C178.470662,19.4738662 175.589329,16.5951996 172.023996,16.5951996 C159.817329,16.5951996 152.27333,24.4129327 152.27333,35.2489325 L152.27333,67.6175983 L149.118663,67.6175983 C145.68933,67.6175983 142.946663,70.3613316 142.946663,73.7894648 C142.946663,77.2197314 145.68933,79.9613313 149.118663,79.9613313 L152.27333,79.9613313 L152.27333,91.483731" id="path14" fill="#231F20" transform="translate(161.0513, 57.6747) scale(-1, 1) rotate(-180) translate(-161.0513, -57.6747)"></path>
            <path d="M226.477328,58.1567985 L226.477328,61.9967985 L210.430661,61.9967985 C204.394662,61.9967985 201.103995,59.1150652 201.103995,54.1775986 C201.103995,48.9655988 204.805328,45.8119989 212.487995,45.8119989 C219.757328,45.8119989 226.477328,50.4743987 226.477328,58.1567985 M200.279995,81.061998 C198.909328,80.101998 197.811995,79.689598 196.166662,79.689598 C192.599995,79.689598 189.719995,82.5686646 189.719995,86.1358645 C189.719995,87.6453311 190.267995,89.2910644 191.501329,90.6623977 C195.342662,94.9139976 202.201328,99.4405308 213.995995,99.4405308 C231.002661,99.4405308 241.154661,91.0734644 241.154661,76.5343981 L241.154661,41.422399 C241.154661,37.4447991 237.861327,34.1530658 233.883994,34.1530658 C229.906661,34.1530658 226.613328,37.4447991 226.613328,41.422399 C222.911994,35.5238658 216.875995,33.4666658 208.647995,33.4666658 C195.205328,33.4666658 186.290662,41.8338656 186.290662,54.1775986 C186.290662,66.9343983 196.577328,73.5186648 208.509328,73.5186648 L226.477328,73.5186648 L226.477328,75.9863981 C226.477328,82.1582646 221.951994,86.2734645 213.995995,86.2734645 C207.961328,86.2734645 203.709328,83.5295979 200.279995,81.061998" id="path16" fill="#231F20" transform="translate(213.7227, 66.4536) scale(-1, 1) rotate(-180) translate(-213.7227, -66.4536)"></path>
            <path d="M290.053326,2.87866659 L269.615993,30.3109326 L265.22666,26.883866 L265.22666,7.13279982 C265.22666,3.01826659 261.935993,0 257.819994,0 C253.567994,0 250.413327,3.01826659 250.413327,7.13279982 L250.413327,91.622931 C250.413327,95.7370643 253.567994,98.7541309 257.819994,98.7541309 C261.935993,98.7541309 265.22666,95.7370643 265.22666,91.622931 L265.22666,43.2057323 L290.053326,62.6807984 C291.834659,64.0537317 293.207993,64.4641317 294.854659,64.4641317 C298.830659,64.4641317 301.985326,61.3103985 301.985326,57.3322652 C301.985326,55.274532 301.025326,53.0807987 299.242659,51.708932 L281.27466,37.9922657 L301.437326,11.5207997 C302.534659,10.0114664 302.945326,8.50519979 302.945326,7.13279982 C302.945326,3.15466659 299.791993,0 295.813326,0 C293.207993,0 291.286659,1.23439997 290.053326,2.87866659" id="path18" fill="#231F20" transform="translate(276.6793, 49.3771) scale(-1, 1) rotate(-180) translate(-276.6793, -49.3771)"></path>
            <path d="M320.503992,73.5186648 L347.661325,73.5186648 C347.661325,80.2390647 343.821325,86.8218645 334.906658,86.8218645 C326.950658,86.8218645 321.189325,82.2962646 320.503992,73.5186648 M334.906658,99.4405308 C358.085324,99.4405308 362.337324,81.608798 362.337324,72.1453315 C362.337324,67.0707983 362.337324,61.1738651 353.970658,61.1738651 L320.091992,61.1738651 C320.091992,51.2973321 327.087992,46.7713322 336.139992,46.7713322 C342.174658,46.7713322 346.426658,48.8286654 349.719991,51.0238654 C351.227991,51.9838654 352.325325,52.531732 354.107991,52.531732 C357.673324,52.531732 360.555991,49.6514654 360.555991,46.0863988 C360.555991,43.8910656 359.458658,42.1062656 358.222658,41.0098656 C355.890658,38.815599 348.622658,33.4666658 336.139992,33.4666658 C317.075992,33.4666658 305.279992,43.7557322 305.279992,66.6593317 C305.279992,87.6453311 316.251992,99.4405308 334.906658,99.4405308" id="path20" fill="#231F20" transform="translate(333.8087, 66.4536) scale(-1, 1) rotate(-180) translate(-333.8087, -66.4536)"></path>
            <path d="M400.05999,67.2073317 C412.678656,67.2073317 419.810656,75.1630648 419.810656,92.3062644 C419.810656,109.452131 412.40399,117.26933 399.78399,117.26933 C389.63599,117.26933 381.130657,110.137464 381.130657,92.3062644 C381.130657,74.6135981 389.35999,67.2073317 400.05999,67.2073317 M381.406657,120.013597 L381.406657,115.623997 C384.01199,120.287997 390.870657,125.225464 400.05999,125.225464 C417.889323,125.225464 428.725323,114.801597 428.725323,92.3062644 C428.725323,69.8130649 417.889323,59.2515985 400.05999,59.2515985 C390.870657,59.2515985 384.285324,64.1906651 381.406657,68.8521316 L381.406657,37.8557324 C381.406657,35.5249991 379.347991,33.4666658 377.017324,33.4666658 C374.685324,33.4666658 372.627991,35.5249991 372.627991,37.8557324 L372.627991,120.013597 C372.627991,122.482797 374.685324,124.40213 377.017324,124.40213 C379.347991,124.40213 381.406657,122.482797 381.406657,120.013597" id="path22" fill="#231F20" transform="translate(400.6767, 79.3461) scale(-1, 1) rotate(-180) translate(-400.6767, -79.3461)"></path>
            <path d="M478.791988,58.9786652 L478.791988,64.7401317 L459.451989,64.7401317 C450.538655,64.7401317 444.367989,61.0358651 444.367989,53.0811987 C444.367989,45.9483989 449.303989,41.422399 460.001322,41.422399 C469.603988,41.422399 478.791988,47.3207988 478.791988,58.9786652 M446.697322,84.2155979 C445.326656,82.7062646 444.367989,82.2967979 443.131989,82.2967979 C440.937322,82.2967979 439.154656,84.0781312 439.154656,86.2734645 C439.154656,87.2343978 439.429322,87.9191978 439.838656,88.6046645 C443.679989,94.6390643 451.086655,99.4405308 462.607988,99.4405308 C478.518655,99.4405308 487.295988,90.1139977 487.295988,76.1229314 L487.295988,38.4057324 C487.295988,36.0749324 485.375988,34.1530658 483.045321,34.1530658 C480.713321,34.1530658 478.791988,36.0749324 478.791988,38.4057324 L478.791988,43.3415989 C475.362655,36.8953324 467.409322,33.4666658 459.179989,33.4666658 C444.639989,33.4666658 435.449322,40.463999 435.449322,53.0811987 C435.449322,65.151465 444.639989,72.4197315 459.451989,72.4197315 L478.791988,72.4197315 L478.791988,76.1229314 C478.791988,85.4499979 472.618655,91.2109311 462.607988,91.2109311 C455.337322,91.2109311 450.949322,89.0166644 446.697322,84.2155979" id="path24" fill="#231F20" transform="translate(461.3727, 66.4536) scale(-1, 1) rotate(-180) translate(-461.3727, -66.4536)"></path>
            <path d="M514.318654,64.4649317 L491.411988,118.915997 C491.275988,119.32853 490.999988,119.87693 490.999988,120.836797 C490.999988,123.305597 492.921321,125.225464 495.389321,125.225464 C497.858654,125.225464 498.955988,123.71653 499.502654,122.344664 L518.843987,75.0249315 L538.182653,122.344664 C538.731987,123.71653 539.830653,125.225464 542.295986,125.225464 C544.767986,125.225464 546.68532,123.305597 546.68532,120.836797 C546.68532,119.87693 546.411986,119.32853 546.27732,118.915997 L519.25332,54.588932 C513.630654,41.147279 506.638654,34.2894658 493.606654,34.2894658 C491.275988,34.2894658 489.490654,36.0717591 489.490654,38.4040524 C489.490654,40.7358256 491.275988,42.5196789 493.606654,42.5196789 C505.539987,42.5196789 508.693321,50.6107987 514.318654,64.4649317" id="path26" fill="#231F20" transform="translate(518.088, 79.7575) scale(-1, 1) rotate(-180) translate(-518.088, -79.7575)"></path>
            <path d="M646.67865,74.4781315 L646.67865,37.8557324 C646.67865,35.3870658 644.759984,33.4666658 642.287984,33.4666658 C639.822651,33.4666658 637.898651,35.3870658 637.898651,37.8557324 L637.898651,72.6931982 C637.898651,83.5297312 634.058651,90.9370644 620.755984,90.9370644 C608.961318,90.9370644 603.610652,84.6265312 603.610652,74.4781315 L603.610652,37.8557324 C603.610652,35.3870658 601.689318,33.4666658 599.222652,33.4666658 C596.751985,33.4666658 594.833318,35.3870658 594.833318,37.8557324 L594.833318,72.6931982 C594.833318,83.5297312 591.403985,90.9370644 577.961319,90.9370644 C565.206653,90.9370644 561.091986,83.2557313 561.091986,71.7333315 L561.091986,37.8557324 C561.091986,35.3870658 559.171986,33.4666658 556.702653,33.4666658 C554.233319,33.4666658 552.311986,35.3870658 552.311986,37.8557324 L552.311986,93.5422643 C552.311986,96.0109309 554.233319,97.9307976 556.702653,97.9307976 C559.171986,97.9307976 561.091986,96.0109309 561.091986,93.5422643 L561.091986,89.1526644 C563.421319,94.2275976 570.006652,98.7541309 578.922652,98.7541309 C590.167985,98.7541309 597.437318,94.6390643 600.727985,89.1526644 C604.159985,94.5015976 610.194651,98.7541309 620.755984,98.7541309 C641.879984,98.7541309 646.67865,86.1359978 646.67865,74.4781315" id="path28" fill="#231F20" transform="translate(599.4953, 66.1104) scale(-1, 1) rotate(-180) translate(-599.4953, -66.1104)"></path>
            <path d="M681.795983,91.483331 C669.865317,91.483331 663.281317,83.8037312 662.457317,71.5942649 L699.351983,71.5942649 C699.351983,81.470398 695.923983,91.483331 681.795983,91.483331 M681.795983,99.4390642 C703.742649,99.4390642 707.994649,82.0193313 707.994649,72.6933315 C707.994649,68.7151983 707.994649,63.9146651 702.507982,63.9146651 L662.457317,63.9146651 C662.457317,50.3365321 670.27465,41.5589323 683.167983,41.5589323 C691.122649,41.5589323 695.787983,44.5761322 699.626649,47.4547988 C700.449316,48.0042655 700.999982,48.2791988 702.095982,48.2791988 C704.289316,48.2791988 706.074649,46.4953322 706.074649,44.3010656 C706.074649,42.7922656 705.389316,41.9693323 704.565316,41.1474656 C702.507982,39.0890657 695.375983,33.4666658 683.167983,33.4666658 C664.925317,33.4666658 653.54265,43.4781322 653.54265,66.521465 C653.54265,87.6427978 663.96665,99.4390642 681.795983,99.4390642" id="path30" fill="#231F20" transform="translate(680.7686, 66.4529) scale(-1, 1) rotate(-180) translate(-680.7686, -66.4529)"></path>
            <path d="M768.346647,74.4781315 L768.346647,37.8557324 C768.346647,35.3870658 766.426648,33.4666658 763.955981,33.4666658 C761.490648,33.4666658 759.566648,35.3870658 759.566648,37.8557324 L759.566648,72.6931982 C759.566648,83.5297312 756.414648,90.9370644 743.109315,90.9370644 C729.531982,90.9370644 724.866649,82.7073313 724.866649,71.7333315 L724.866649,37.8557324 C724.866649,35.3870658 722.947982,33.4666658 720.478649,33.4666658 C718.010649,33.4666658 716.089315,35.3870658 716.089315,37.8557324 L716.089315,93.5422643 C716.089315,96.0109309 718.010649,97.9307976 720.478649,97.9307976 C722.947982,97.9307976 724.866649,96.0109309 724.866649,93.5422643 L724.866649,89.1526644 C727.474648,94.3655976 734.193315,98.7541309 743.109315,98.7541309 C764.231981,98.7541309 768.346647,86.1359978 768.346647,74.4781315" id="path32" fill="#231F20" transform="translate(742.218, 66.1104) scale(-1, 1) rotate(-180) translate(-742.218, -66.1104)"></path>
            <path d="M782.06798,94.364531 C782.06798,96.6957309 784.122647,98.7541309 786.457314,98.7541309 C788.92398,98.7541309 790.845314,96.6957309 790.845314,94.364531 L790.845314,79.962398 L799.761313,79.962398 C802.09198,79.962398 803.874647,78.1790647 803.874647,75.8478648 C803.874647,73.5159982 802.09198,71.7322649 799.761313,71.7322649 L790.845314,71.7322649 L790.845314,33.8774658 C790.845314,27.980666 794.137313,24.8243994 798.79998,24.8243994 C801.130647,24.8243994 803.053313,23.0415994 803.053313,20.7098661 C803.053313,18.3774662 801.130647,16.5951996 798.79998,16.5951996 C787.96398,16.5951996 782.06798,23.8634661 782.06798,33.8774658 L782.06798,71.7322649 L776.718647,71.7322649 C774.387981,71.7322649 772.603981,73.5159982 772.603981,75.8478648 C772.603981,78.1790647 774.387981,79.962398 776.718647,79.962398 L782.06798,79.962398 L782.06798,94.364531" id="path34" fill="#231F20" transform="translate(788.2393, 57.6747) scale(-1, 1) rotate(-180) translate(-788.2393, -57.6747)"></path>
            <path d="M820.399979,82.7062646 C820.399979,68.304665 856.473312,73.6551982 856.473312,51.7098654 C856.473312,39.2265324 846.187979,33.6041325 833.158646,33.6041325 C821.910646,33.6041325 813.270646,38.9530657 809.702646,43.4790656 C809.018646,44.4390656 808.742646,45.1249322 808.742646,46.0858655 C808.742646,48.2811988 810.525313,50.0623987 812.721313,50.0623987 C813.545313,50.0623987 814.641313,49.7890654 815.738646,48.6899988 C819.99198,44.4390656 825.475979,41.9702656 833.158646,41.9702656 C840.974646,41.9702656 847.697312,44.5770656 847.697312,51.7098654 C847.697312,65.837465 811.621313,60.2123985 811.621313,82.7062646 C811.621313,94.090531 820.951979,99.3025309 832.609313,99.3025309 C841.935979,99.3025309 849.205312,96.1483976 853.457312,90.5249311 C853.869312,89.9765311 854.415979,89.1530644 854.415979,87.9186645 C854.415979,85.7233312 852.633312,83.9421312 850.439979,83.9421312 C849.753312,83.9421312 848.655979,84.0781312 847.558645,85.1749312 C843.854646,88.7421311 839.741312,90.9363977 832.609313,90.9363977 C826.438646,90.9363977 820.399979,89.0155978 820.399979,82.7062646" id="path36" fill="#231F20" transform="translate(832.608, 66.4533) scale(-1, 1) rotate(-180) translate(-832.608, -66.4533)"></path>
            <path d="M21.4890661,83.577563 C20.1791995,82.3354297 20.1245328,80.2660965 21.3666661,78.9551631 C29.3849326,70.49943 43.1177323,65.4368968 58.1010652,65.4119635 C58.1327985,65.4119635 58.1630652,65.4119635 58.1953319,65.4119635 C72.0989315,65.4119635 85.9901312,70.5619634 94.464531,78.8624965 C95.7551976,80.1254298 95.7765309,82.1972964 94.5130643,83.486363 C93.2494643,84.7764963 91.1786644,84.7972963 89.8901311,83.534363 C82.5911979,76.3848965 70.4541316,71.9499633 58.1969319,71.9499633 C58.1687985,71.9499633 58.1395985,71.9499633 58.1114652,71.9499633 C45.0811989,71.97183 32.8202658,76.3796965 26.1119993,83.455163 C24.8697327,84.763563 22.8010661,84.820763 21.4890661,83.577563" id="path38" fill="#C80C7D" transform="translate(57.9582, 74.9432) scale(-1, 1) rotate(-180) translate(-57.9582, -74.9432)"></path>
            <path d="M111.035464,70.9078649 C110.996397,70.8911982 110.953597,70.8917316 110.915064,70.8698649 C109.282264,69.9682649 107.119731,69.1265316 104.529197,68.3551983 L104.529197,81.4125313 C104.529197,84.5103979 102.008397,87.0322645 98.9098642,87.0322645 L16.9057329,87.0322645 C13.807333,87.0322645 11.2859331,84.5103979 11.2859331,81.4125313 L11.2859331,70.4155982 C11.2859331,70.4141316 11.2854131,70.4130649 11.2854131,70.4109316 L11.2854131,68.397465 C8.74635978,69.1609316 6.62551983,69.9922649 5.01978654,70.8827982 L5.01978654,82.1625313 C5.01978654,88.4213311 10.1114531,93.514131 16.3702663,93.514131 L99.6843975,93.514131 C105.943197,93.514131 111.035464,88.4213311 111.035464,82.1625313 L111.035464,70.9078649 Z M13.7286663,75.0401315 L13.7286663,81.4125313 C13.7286663,83.1641313 15.1535996,84.5895979 16.9057329,84.5895979 L98.9098642,84.5895979 C100.661997,84.5895979 102.086931,83.1641313 102.086931,81.4125313 L102.086931,75.0390648 C101.182264,75.6625314 100.089064,76.0313314 98.9098642,76.0313314 L16.9057329,76.0313314 C15.7259996,76.0313314 14.6327996,75.6630648 13.7286663,75.0401315 Z M16.9057329,73.5885315 L98.9098642,73.5885315 C100.661997,73.5885315 102.086931,72.1635982 102.086931,70.4109316 L102.086931,67.9073316 C102.086931,67.906265 102.086931,67.9057316 102.086931,67.9057316 L102.086931,67.6813316 C91.5411977,64.9833317 75.3693314,63.3182651 57.9786652,63.3182651 C40.5030657,63.3182651 24.2682661,64.997465 13.7286663,67.7171983 L13.7286663,70.4155982 C13.7311997,72.1655982 15.1546663,73.5885315 16.9057329,73.5885315 Z M111.035464,26.1479993 C111.035464,19.8890662 105.943197,14.7963996 99.6843975,14.7963996 L16.3702663,14.7963996 C10.1114531,14.7963996 5.01978654,19.8890662 5.01978654,26.1479993 L5.01978654,67.8037316 C14.400533,63.3849317 34.8207991,60.5687985 57.9786652,60.5687985 C81.2062646,60.5687985 101.697864,63.4051984 111.035464,67.8489316 L111.035464,26.1479993 Z M99.6843975,98.5327975 L16.3702663,98.5327975 C7.34374648,98.5327975 0,91.1890644 0,82.1625313 L0,26.1479993 C0,17.1218662 7.34374648,9.77706642 16.3702663,9.77706642 L99.6843975,9.77706642 C108.710931,9.77706642 116.054664,17.1218662 116.054664,26.1479993 L116.054664,82.1625313 C116.054664,91.1890644 108.710931,98.5327975 99.6843975,98.5327975" id="path40" fill="#C80C7D" transform="translate(58.0273, 54.1549) scale(-1, 1) rotate(-180) translate(-58.0273, -54.1549)"></path>
        </g>
    </g>
</svg>