<?xml version="1.0" encoding="UTF-8"?>
<svg version="1.1" xmlns="http://www.w3.org/2000/svg" width="563" height="570">
<path d="M0 0 C185.79 0 371.58 0 563 0 C563 188.1 563 376.2 563 570 C377.21 570 191.42 570 0 570 C0 381.9 0 193.8 0 0 Z " fill="#FDFDFD" transform="translate(0,0)"/>
<path d="M0 0 C0.66180267 0.00310181 1.32360535 0.00620361 2.00546265 0.00939941 C11.57158411 0.0619883 20.79138904 0.34418504 30.1875 2.25 C31.425 2.47171875 32.6625 2.6934375 33.9375 2.921875 C49.7255664 6.0113051 66.48251854 11.78663142 80.1875 20.25 C81.09628906 20.79599854 81.09628906 20.79599854 82.0234375 21.35302734 C93.96758309 28.53950237 105.62517001 35.98608602 115.1875 46.25 C116.3940625 47.4565625 116.3940625 47.4565625 117.625 48.6875 C118.470625 49.533125 119.31625 50.37875 120.1875 51.25 C120.73664063 51.74113281 121.28578125 52.23226562 121.8515625 52.73828125 C137.71140057 67.45594991 151.65449314 90.81572111 157.44140625 111.609375 C157.97157072 113.48576861 158.54678937 115.34968731 159.15234375 117.203125 C172.58504781 158.36295782 166.52306214 203.95930167 147.1875 242.25 C144.17193552 247.79177227 140.75823546 253.05281063 137.1875 258.25 C136.73391113 258.91241699 136.28032227 259.57483398 135.81298828 260.25732422 C120.61920474 282.1357379 100.14730394 300.43556629 76.1875 312.25 C74.9347777 313.01640124 73.68463407 313.78703843 72.4375 314.5625 C61.99481116 320.35819231 49.90586885 323.22087226 38.375 326 C37.55290039 326.19851563 36.73080078 326.39703125 35.88378906 326.6015625 C24.47789347 329.23959934 13.33753316 330.620007 1.625 330.5625 C0.40482178 330.55686035 -0.81535645 330.5512207 -2.07250977 330.54541016 C-35.64292469 330.09995106 -70.25386839 319.10014524 -96.8125 298.25 C-97.699375 297.55519531 -98.58625 296.86039062 -99.5 296.14453125 C-101.95351139 294.19851701 -104.38731227 292.23113927 -106.8125 290.25 C-107.69421875 289.5384375 -107.69421875 289.5384375 -108.59375 288.8125 C-118.8327253 280.45415282 -127.58206055 270.27201136 -134.8125 259.25 C-135.7236833 257.89825206 -136.63516628 256.54670611 -137.546875 255.1953125 C-146.48940497 241.81125659 -146.48940497 241.81125659 -148.93359375 234.71484375 C-149.80472013 232.14691068 -149.80472013 232.14691068 -151.16015625 229.37890625 C-154.70148079 221.83434528 -157.03388157 214.32050986 -159.0625 206.25 C-159.43157471 204.79182861 -159.43157471 204.79182861 -159.80810547 203.30419922 C-169.47568396 163.27949021 -163.9109053 118.52411848 -142.59448242 83.02392578 C-140.37702202 79.40392812 -138.11243498 75.81802192 -135.8125 72.25 C-135.43270996 71.63801758 -135.05291992 71.02603516 -134.66162109 70.39550781 C-133.76499761 68.97865202 -132.79577156 67.60815723 -131.8125 66.25 C-131.1525 66.25 -130.4925 66.25 -129.8125 66.25 C-129.58820313 65.54488281 -129.36390625 64.83976562 -129.1328125 64.11328125 C-127.53315775 60.64420749 -125.29417451 58.16616282 -122.6875 55.4375 C-122.1932251 54.91124023 -121.6989502 54.38498047 -121.18969727 53.84277344 C-119.73841776 52.30421485 -118.27669408 50.77625812 -116.8125 49.25 C-116.10222656 48.49847656 -115.39195312 47.74695313 -114.66015625 46.97265625 C-91.13440881 22.6771502 -59.59569891 8.57038267 -26.8125 2.25 C-25.92135498 2.06904785 -25.03020996 1.8880957 -24.11206055 1.70166016 C-16.04508107 0.18644989 -8.1946337 -0.0602432 0 0 Z " fill="#008001" transform="translate(280.8125,125.75)"/>
<path d="M0 0 C185.79 0 371.58 0 563 0 C563 188.1 563 376.2 563 570 C377.21 570 191.42 570 0 570 C0 381.9 0 193.8 0 0 Z M19 19 C19 194.89 19 370.78 19 552 C192.58 552 366.16 552 545 552 C545 376.11 545 200.22 545 19 C371.42 19 197.84 19 19 19 Z " fill="#058006" transform="translate(0,0)"/>
<path d="M0 0 C185.79 0 371.58 0 563 0 C563 188.1 563 376.2 563 570 C377.21 570 191.42 570 0 570 C0 381.9 0 193.8 0 0 Z M2 2 C2 189.11 2 376.22 2 569 C186.8 569 371.6 569 562 569 C562 381.89 562 194.78 562 2 C377.2 2 192.4 2 2 2 Z " fill="#E4FDE1" transform="translate(0,0)"/>
<path d="M0 0 C173.58 0 347.16 0 526 0 C526 175.89 526 351.78 526 533 C352.42 533 178.84 533 0 533 C0 357.11 0 181.22 0 0 Z M2 3 C0.48562364 7.05710039 0.86345802 11.41874986 0.87695217 15.69131088 C0.87579833 16.58232244 0.87464448 17.47333401 0.87345567 18.39134592 C0.87079382 21.39826522 0.87530767 24.40513173 0.87974548 27.41204834 C0.87930969 29.58102088 0.87843464 31.74999337 0.87715632 33.91896558 C0.87491288 39.89576111 0.8789306 45.87253883 0.88393438 51.84933209 C0.88824084 58.28831308 0.88679231 64.72729301 0.8860321 71.16627502 C0.88533398 82.32777892 0.88861765 93.48927735 0.89426994 104.65077972 C0.90018386 116.35887428 0.90403526 128.06696652 0.90512276 139.77506256 C0.9051915 140.50261966 0.90526024 141.23017676 0.90533106 141.97978105 C0.90566938 145.67456879 0.90597077 149.36935654 0.90625793 153.06414428 C0.9083592 179.24475012 0.91509895 205.42535291 0.92456055 231.60595703 C0.93374264 257.04248031 0.94081049 282.47900275 0.94506836 307.91552734 C0.945339 309.51463552 0.94560971 311.1137437 0.94588047 312.71285188 C0.9480692 325.70595535 0.95011179 338.69905885 0.95211896 351.69216235 C0.96150895 411.79477778 0.98157868 471.89738528 1 532 C173.59 532 346.18 532 524 532 C524 357.1 524 182.2 524 2 C438.426875 1.979375 352.85375 1.95875 264.6875 1.9375 C237.61936279 1.928396 210.55122559 1.91929199 182.6628418 1.90991211 C158.50113684 1.90656868 158.50113684 1.90656868 134.33943176 1.90455627 C122.82406933 1.90355895 111.3087129 1.89923703 99.79335236 1.89332657 C88.06237895 1.8873865 76.33140957 1.88523904 64.60043471 1.88655505 C58.22838609 1.88716014 51.85634854 1.88616931 45.48430192 1.88078487 C39.7317771 1.87595322 33.97927127 1.87565385 28.22674561 1.87909889 C26.13821361 1.87952587 24.04968048 1.87823256 21.96115077 1.87511742 C19.13226317 1.87114322 16.30344521 1.8732435 13.47455883 1.87695217 C12.64974889 1.87432515 11.82493895 1.87169812 10.97513477 1.86899149 C7.72105115 1.87873361 5.1097042 1.96343193 2 3 Z " fill="#D8F8D8" transform="translate(19,19)"/>
<path d="M0 0 C184.8 0 369.6 0 560 0 C560 187.11 560 374.22 560 567 C375.2 567 190.4 567 0 567 C0 379.89 0 192.78 0 0 Z M1 1 C0.979375 92.760625 0.95875 184.52125 0.9375 279.0625 C0.928396 308.07808838 0.91929199 337.09367676 0.90991211 366.98852539 C0.90656849 392.909172 0.90656849 392.909172 0.90455627 418.82981873 C0.90355979 431.17415859 0.89924096 443.51849301 0.89332657 455.86283135 C0.88737992 468.44418683 0.8851619 481.02553887 0.88655505 493.60689571 C0.88721096 500.43821971 0.88617964 507.26953277 0.88078487 514.10085499 C0.87594055 520.27244122 0.87566229 526.44400976 0.87909889 532.61559677 C0.87952461 534.85202916 0.87824201 537.08846263 0.87511742 539.32489288 C0.87112042 542.36321357 0.87325774 545.40147012 0.87695217 548.43978977 C0.87301163 549.75269415 0.87301163 549.75269415 0.86899149 551.09212184 C0.88208204 555.83429059 1.20666914 560.32279525 2 565 C54.99320909 565.01710961 107.98641842 565.03303135 160.97962952 565.04234314 C162.15514354 565.04255023 162.15514354 565.04255023 163.35440532 565.04276149 C180.38369583 565.04575404 197.41298637 565.04852428 214.44227695 565.05106533 C222.7928168 565.05231272 231.14335664 565.05360927 239.49389648 565.05493164 C240.32489826 565.0550624 241.15590004 565.05519316 242.01208369 565.05532788 C268.97210108 565.05959313 295.93211637 565.06710733 322.89213249 565.07629722 C350.58520713 565.08571989 378.27828061 565.09188314 405.97135683 565.09391499 C409.87821354 565.09420317 413.78507025 565.0945288 417.69192696 565.09487724 C418.84537332 565.09497838 418.84537332 565.09497838 420.02212164 565.09508156 C432.42589979 565.09626563 444.82967437 565.10091002 457.23345106 565.10683203 C469.68793563 565.112705 482.14241664 565.11497157 494.59690254 565.11350138 C501.35129447 565.11280534 508.10567526 565.1138796 514.86006546 565.11920547 C521.03251737 565.12403726 527.2049516 565.12434012 533.37740428 565.12089889 C535.62101459 565.12047298 537.86462597 565.12177057 540.10823416 565.12488318 C543.13674304 565.12884342 546.16518644 565.12676574 549.19369411 565.12304783 C550.52777769 565.12698835 550.52777769 565.12698835 551.88881245 565.13100848 C555.75537218 565.50213119 555.75537218 565.50213119 559 564 C559.09909607 561.02056247 559.13173989 558.06427402 559.12304783 555.08437252 C559.1247786 553.65681018 559.1247786 553.65681018 559.12654433 552.20040819 C559.12921913 548.96895122 559.12468177 545.73754277 559.12025452 542.50608826 C559.12069004 540.18296248 559.1215646 537.85983674 559.12284368 535.53671128 C559.12485592 529.79445392 559.12218447 524.0522117 559.11760301 518.30995613 C559.11238127 511.43636198 559.11294615 504.56277153 559.11374746 497.68917587 C559.11506351 485.00243681 559.11171182 472.31570293 559.10573006 459.62896538 C559.09981969 447.06152763 559.09596546 434.49409204 559.09487724 421.92665291 C559.0948085 421.14620841 559.09473976 420.36576391 559.09466894 419.56166958 C559.09433062 415.59843326 559.09402923 411.63519693 559.09374207 407.6719606 C559.09163981 379.57630885 559.08489733 351.48065992 559.07543945 323.38500977 C559.06625996 296.08487971 559.05919083 268.78475043 559.05493164 241.48461914 C559.054661 239.7688755 559.05439029 238.05313186 559.05411953 236.33738822 C559.05193086 222.39699099 559.04988824 208.45659375 559.04788104 194.5161965 C559.03848791 130.01079498 559.018419 65.50540085 559 1 C374.86 1 190.72 1 1 1 Z " fill="#2F8A30" transform="translate(2,2)"/>
<path d="M0 0 C3 3 3 3 3.07834825 4.94022224 C2.95179096 5.65821261 2.82523368 6.37620299 2.69484133 7.11595064 C1.9960574 11.83422909 1.86353901 16.3809092 1.8825388 21.1447897 C1.88198414 22.02408755 1.88142949 22.9033854 1.88085803 23.80932865 C1.88021787 26.74631649 1.88672565 29.68324388 1.89320374 32.620224 C1.89420021 34.75083814 1.8947495 36.88145253 1.89489073 39.0120669 C1.8965348 44.85969181 1.90440041 50.70729438 1.91325247 56.55491221 C1.92168643 62.86364234 1.92428205 69.17237506 1.92750549 75.48110962 C1.93380196 86.40952421 1.94353585 97.33793049 1.95540047 108.26634026 C1.97324308 124.7976685 1.98263703 141.32899573 1.99029111 157.86033142 C1.99340019 164.49506856 1.99678224 171.12980557 2.00016689 177.76454258 C2.00072905 178.87010026 2.00072905 178.87010026 2.00130256 179.99799244 C2.01027042 197.53227307 2.0219331 215.06655164 2.03442383 232.60083008 C2.03496823 233.36786657 2.03551264 234.13490306 2.03607354 234.92518308 C2.04880732 252.83440085 2.06282561 270.74361706 2.07904053 288.65283203 C2.07973772 289.42392628 2.0804349 290.19502052 2.08115322 290.98948126 C2.08467106 294.87804659 2.08819786 298.76661192 2.0917251 302.65517724 C2.09242189 303.42375067 2.09311867 304.1923241 2.09383656 304.98418763 C2.09524332 306.53549098 2.09665159 308.08679433 2.09806137 309.63809768 C2.12128785 335.24242623 2.13775551 360.84675217 2.14673797 386.4510898 C2.14801462 390.06304613 2.14938338 393.67500242 2.15081596 397.28695869 C2.15109731 397.99782784 2.15137866 398.70869699 2.15166853 399.44110763 C2.15643279 410.90042086 2.16860505 422.35971499 2.18370286 433.81901878 C2.19874287 445.32136795 2.20662497 456.82369829 2.20748956 468.3260585 C2.2081963 474.56218398 2.21225631 480.79826258 2.2249527 487.03437614 C2.23649666 492.73406248 2.23897851 498.43367552 2.23401051 504.1333707 C2.23385823 506.2037858 2.23714954 508.27420435 2.24408758 510.34460782 C2.25298289 513.14186404 2.24976535 515.93884188 2.24330235 518.73609829 C2.24884222 519.55450954 2.25438209 520.37292078 2.26008984 521.21613237 C2.22828729 526.77171271 2.22828729 526.77171271 0 529 C0 354.43 0 179.86 0 0 Z " fill="#0B750F" transform="translate(546,20)"/>
<path d="M0 0 C3.7660839 1.37480344 7.17540046 3.14283213 10.67407227 5.07250977 C19.51866781 9.94264155 28.45888685 13.72545915 38 17 C38 17.33 38 17.66 38 18 C30.25 18.125 30.25 18.125 28 17 C28 16.34 28 15.68 28 15 C25.69 14.67 23.38 14.34 21 14 C21 13.34 21 12.68 21 12 C20.195625 11.731875 19.39125 11.46375 18.5625 11.1875 C16.7990625 10.5996875 16.7990625 10.5996875 15 10 C13.86304688 9.63841797 13.86304688 9.63841797 12.703125 9.26953125 C11.91421875 9.01558594 11.1253125 8.76164062 10.3125 8.5 C9.56613281 8.2628125 8.81976563 8.025625 8.05078125 7.78125 C6 7 6 7 3 5 C3 4.34 3 3.68 3 3 C2.01 2.67 1.02 2.34 0 2 C0 1.34 0 0.68 0 0 Z " fill="#DBF8D8" transform="translate(192,430)"/>
<path d="M0 0 C0.33 0 0.66 0 1 0 C1.89667784 7.27036089 2.13947898 12.98726334 0 20 C-0.185625 21.299375 -0.37125 22.59875 -0.5625 23.9375 C-1 27 -1 27 -2 28 C-2.185625 29.7634375 -2.185625 29.7634375 -2.375 31.5625 C-3.07736468 37.67526764 -4.89519738 43.30879701 -9 48 C-8.33251014 42.39758507 -7.05550825 37.12267843 -5.5625 31.6875 C-2.72077201 21.07358514 -0.71780819 10.99379907 0 0 Z " fill="#CCF0CC" transform="translate(446,300)"/>
<path d="M0 0 C1.2065625 0.0309375 1.2065625 0.0309375 2.4375 0.0625 C-0.33696139 2.98433463 -3.1811585 5.28672297 -6.5 7.5625 C-13.39348336 12.48109353 -19.44392878 18.22602507 -25.5625 24.0625 C-26.2225 23.0725 -26.8825 22.0825 -27.5625 21.0625 C-26.634375 20.93875 -26.634375 20.93875 -25.6875 20.8125 C-22.88744581 19.82424558 -22.82136068 18.65890015 -21.5625 16.0625 C-19.4375 14.8125 -19.4375 14.8125 -17.5625 14.0625 C-17.5625 13.4025 -17.5625 12.7425 -17.5625 12.0625 C-16.923125 11.959375 -16.28375 11.85625 -15.625 11.75 C-14.944375 11.523125 -14.26375 11.29625 -13.5625 11.0625 C-13.2325 10.0725 -12.9025 9.0825 -12.5625 8.0625 C-10.5 7.375 -10.5 7.375 -8.5625 7.0625 C-8.5625 6.0725 -8.5625 5.0825 -8.5625 4.0625 C-6.125 2.4375 -6.125 2.4375 -3.5625 1.0625 C-2.5625 0.0625 -2.5625 0.0625 0 0 Z " fill="#DAF7DA" transform="translate(189.5625,151.9375)"/>
<path d="M0 0 C0.33 0 0.66 0 1 0 C1.05422947 1.4370809 1.09289723 2.87475462 1.125 4.3125 C1.14820313 5.11300781 1.17140625 5.91351563 1.1953125 6.73828125 C0.90361568 10.11613046 -1.14432532 12.21648798 -3 15 C-3.33 15.66 -3.66 16.32 -4 17 C-4.66 17 -5.32 17 -6 17 C-5.938125 17.928125 -5.87625 18.85625 -5.8125 19.8125 C-6 23 -6 23 -7.3125 24.8125 C-9 26 -9 26 -12 27 C-10.70446104 22.83576764 -9.12592315 19.05975283 -7.125 15.1875 C-4.57981913 10.19071109 -2.21181731 5.15223327 0 0 Z " fill="#D3F0D1" transform="translate(436,348)"/>
<path d="M0 0 C0 0.66 0 1.32 0 2 C-1.9490625 2.1546875 -1.9490625 2.1546875 -3.9375 2.3125 C-7.26143596 2.662388 -9.97753192 3.29992619 -13.0625 4.5625 C-19.72404414 7.0129966 -27.01535764 6.23139306 -34 6 C-34 5.67 -34 5.34 -34 5 C-32.83984375 4.81824219 -31.6796875 4.63648438 -30.484375 4.44921875 C-22.32499306 3.14385763 -14.33315403 1.76348066 -6.3828125 -0.546875 C-3.8657121 -1.02553672 -2.39928797 -0.82580144 0 0 Z " fill="#CFEFC9" transform="translate(330,450)"/>
<path d="M0 0 C-0.33 0.66 -0.66 1.32 -1 2 C-1.5775 2.0825 -2.155 2.165 -2.75 2.25 C-5.63254203 3.21084734 -6.74348063 4.95310938 -8.5625 7.30078125 C-11.0418173 10.23149599 -14.02879253 12.58535877 -17 15 C-17.33 14.34 -17.66 13.68 -18 13 C-19.65 13.66 -21.3 14.32 -23 15 C-19.66747086 10.24918822 -15.66581747 7.34246896 -10.9375 4.125 C-10.21755859 3.61453125 -9.49761719 3.1040625 -8.75585938 2.578125 C-8.06169922 2.10117188 -7.36753906 1.62421875 -6.65234375 1.1328125 C-5.70862915 0.48143311 -5.70862915 0.48143311 -4.74584961 -0.18310547 C-3 -1 -3 -1 0 0 Z " fill="#19821D" transform="translate(198,151)"/>
<path d="M0 0 C0.33 0 0.66 0 1 0 C1.17128418 0.69561035 1.34256836 1.3912207 1.51904297 2.10791016 C2.30185098 5.280899 3.08839052 8.45295154 3.875 11.625 C4.14441406 12.71941406 4.41382812 13.81382812 4.69140625 14.94140625 C4.95566406 16.00488281 5.21992187 17.06835938 5.4921875 18.1640625 C5.73308105 19.13811035 5.97397461 20.1121582 6.22216797 21.11572266 C7.03306667 24.12261446 7.98789702 27.05535321 9 30 C8.01 29.67 7.02 29.34 6 29 C5.67 28.01 5.34 27.02 5 26 C4.34 25.67 3.68 25.34 3 25 C3.33 22.36 3.66 19.72 4 17 C3.34 17 2.68 17 2 17 C-0.44064587 11.35600642 -0.19289099 6.02248522 0 0 Z " fill="#C9EAC3" transform="translate(119,320)"/>
<path d="M0 0 C2.77100148 2.77100148 3.21939462 5.9287884 4.125 9.625 C4.30675781 10.31207031 4.48851562 10.99914062 4.67578125 11.70703125 C5.89329126 16.5862255 6.16941745 20.97394907 6 26 C5.67 24.68 5.34 23.36 5 22 C4.34 22 3.68 22 3 22 C-0.44419134 7.40318907 -0.44419134 7.40318907 0 0 Z " fill="#2A832E" transform="translate(438,240)"/>
<path d="M0 0 C0.33 0.66 0.66 1.32 1 2 C1.66 2.33 2.32 2.66 3 3 C2.01 3 1.02 3 0 3 C-0.226875 3.70125 -0.45375 4.4025 -0.6875 5.125 C-2.76305777 9.67145988 -5.26936129 13.15390996 -9.8125 15.375 C-10.534375 15.58125 -11.25625 15.7875 -12 16 C-12 15.34 -12 14.68 -12 14 C-11.34 14 -10.68 14 -10 14 C-9.63261719 12.91138672 -9.63261719 12.91138672 -9.2578125 11.80078125 C-7.85948793 8.68712063 -6.18703779 6.68599245 -3.875 4.1875 C-3.15054688 3.39730469 -2.42609375 2.60710937 -1.6796875 1.79296875 C-1.12539062 1.20128906 -0.57109375 0.60960937 0 0 Z " fill="#128018" transform="translate(161,178)"/>
<path d="M0 0 C-4.2709353 3.101979 -7.97749611 4.87275539 -13.125 6.3125 C-14.32382813 6.65925781 -15.52265625 7.00601563 -16.7578125 7.36328125 C-19.74183233 7.9492996 -21.21636901 8.07329055 -24 7 C-21.79296628 6.03857983 -19.58446467 5.08080463 -17.375 4.125 C-16.75753906 3.85558594 -16.14007813 3.58617187 -15.50390625 3.30859375 C-4.14431424 -1.59396701 -4.14431424 -1.59396701 0 0 Z " fill="#2B8328" transform="translate(236,134)"/>
<path d="M0 0 C0.66 0.33 1.32 0.66 2 1 C1.05016642 2.50539661 0.08988109 4.00420347 -0.875 5.5 C-1.40867188 6.3353125 -1.94234375 7.170625 -2.4921875 8.03125 C-2.98976562 8.6809375 -3.48734375 9.330625 -4 10 C-4.66 10 -5.32 10 -6 10 C-6.66 11.65 -7.32 13.3 -8 15 C-8.33 15 -8.66 15 -9 15 C-9.38922918 13.71254964 -9.76098036 12.41980403 -10.125 11.125 C-10.33382812 10.40570313 -10.54265625 9.68640625 -10.7578125 8.9453125 C-10.83773437 8.30335938 -10.91765625 7.66140625 -11 7 C-10.34 6.34 -9.68 5.68 -9 5 C-8.01 5 -7.02 5 -6 5 C-3.8817921 4.76230794 -3.8817921 4.76230794 -2 4 C-1.67 3.01 -1.34 2.02 -1 1 C-0.67 0.67 -0.34 0.34 0 0 Z " fill="#EDFAEC" transform="translate(155,182)"/>
<path d="M0 0 C0.66 0.33 1.32 0.66 2 1 C0.35 10.9 -1.3 20.8 -3 31 C-3.33 31 -3.66 31 -4 31 C-4.27733386 22.4488728 -3.52016163 14.41518047 -2 6 C-1.34 6 -0.68 6 0 6 C0 4.02 0 2.04 0 0 Z " fill="#D3F5D3" transform="translate(121,245)"/>
<path d="M0 0 C1 2 1 2 0.83203125 3.88671875 C-0.29443791 6.74784465 -1.89802137 7.93545033 -4.3125 9.8125 C-5.09238281 10.43769531 -5.87226563 11.06289063 -6.67578125 11.70703125 C-9 13 -9 13 -13 12 C-8.71 8.04 -4.42 4.08 0 0 Z " fill="#DBF3D7" transform="translate(397,408)"/>
<path d="M0 0 C0.99 0.33 1.98 0.66 3 1 C3.79706768 4.49992696 4.11863027 7.7142231 4.09765625 11.30078125 C4.09443359 12.27724609 4.09121094 13.25371094 4.08789062 14.25976562 C4.07951172 15.26716797 4.07113281 16.27457031 4.0625 17.3125 C4.05798828 18.33923828 4.05347656 19.36597656 4.04882812 20.42382812 C4.03708184 22.94927882 4.02065565 25.47460905 4 28 C3.67 28 3.34 28 3 28 C2.95101563 27.11699219 2.90203125 26.23398437 2.8515625 25.32421875 C2.42675677 18.50535434 1.77750875 11.90217764 0.40234375 5.20703125 C0 3 0 3 0 0 Z " fill="#DDF5DA" transform="translate(443,255)"/>
<path d="M0 0 C8.27056461 2.03863617 16.10114411 4.82287673 24 8 C21 10 21 10 18.80859375 9.57421875 C18.02613281 9.28160156 17.24367188 8.98898438 16.4375 8.6875 C15.65246094 8.40261719 14.86742187 8.11773437 14.05859375 7.82421875 C12 7 12 7 10 6 C10 5.34 10 4.68 10 4 C6.7 3.34 3.4 2.68 0 2 C0 1.34 0 0.68 0 0 Z " fill="#1C7E22" transform="translate(328,133)"/>
<path d="M0 0 C-1.57826815 1.46381359 -3.16282229 2.92085163 -4.75 4.375 C-5.63171875 5.18710937 -6.5134375 5.99921875 -7.421875 6.8359375 C-9.59802521 8.6625848 -11.40820119 9.89787994 -14 11 C-14 9.35 -14 7.7 -14 6 C-12.35 6 -10.7 6 -9 6 C-9 5.01 -9 4.02 -9 3 C-8.34 3 -7.68 3 -7 3 C-6.67 2.01 -6.34 1.02 -6 0 C-3 -1 -3 -1 0 0 Z " fill="#1A811B" transform="translate(394,412)"/>
<path d="M0 0 C2 3 2 3 1.75 4.9375 C0.72030553 7.76915979 -0.65125513 10.34353907 -2.0625 13 C-2.99500661 14.98934744 -3.54074016 16.85678743 -4 19 C-4.66 19 -5.32 19 -6 19 C-4.47214176 12.40095271 -2.92382423 6.12610791 0 0 Z " fill="#2A862D" transform="translate(130,225)"/>
<path d="M0 0 C1.32 0.33 2.64 0.66 4 1 C4.66 3.31 5.32 5.62 6 8 C7.32 8 8.64 8 10 8 C10 10.64 10 13.28 10 16 C7.02092825 13.37841686 5.27874101 10.2963418 3.3125 6.875 C2.37857422 5.26238281 2.37857422 5.26238281 1.42578125 3.6171875 C0 1 0 1 0 0 Z " fill="#DDF6DB" transform="translate(420,201)"/>
<path d="M0 0 C0.99 0.33 1.98 0.66 3 1 C1.73452987 2.62918007 0.46242272 4.25320642 -0.8125 5.875 C-1.52019531 6.77992188 -2.22789062 7.68484375 -2.95703125 8.6171875 C-5 11 -5 11 -8 13 C-7.33333333 9.66666667 -6.66666667 6.33333333 -6 3 C-4.68 3.66 -3.36 4.32 -2 5 C-1.34 3.35 -0.68 1.7 0 0 Z " fill="#197F1B" transform="translate(409,391)"/>
<path d="M0 0 C7.52212546 -0.30088502 17.19537115 -0.40231442 24 3 C24 3.66 24 4.32 24 5 C18.44686304 4.35588614 12.98744364 3.49942196 7.5 2.4375 C6.77296875 2.29892578 6.0459375 2.16035156 5.296875 2.01757812 C3.53081963 1.68063335 1.76534574 1.34064317 0 1 C0 0.67 0 0.34 0 0 Z " fill="#CDEECD" transform="translate(304,127)"/>
<path d="M0 0 C0 0.99 0 1.98 0 3 C-1.38782485 3.8466034 -2.78569397 4.67675339 -4.1875 5.5 C-4.96480469 5.9640625 -5.74210937 6.428125 -6.54296875 6.90625 C-9.24103386 8.10729647 -11.0806982 8.20741043 -14 8 C-11.19771852 4.88635391 -8.92173579 3.40780259 -5 2 C-2 0 -2 0 0 0 Z " fill="#DCF3D6" transform="translate(368,432)"/>
<path d="M0 0 C-0.66 0 -1.32 0 -2 0 C-2.33 0.99 -2.66 1.98 -3 3 C-7.95 3 -12.9 3 -18 3 C-14.93344745 0.95563163 -13.12890332 0.45609789 -9.5625 -0.1875 C-8.61503906 -0.36667969 -7.66757813 -0.54585937 -6.69140625 -0.73046875 C-4.10788261 -0.98919608 -2.43945237 -0.81315079 0 0 Z " fill="#208322" transform="translate(258,129)"/>
<path d="M0 0 C1.14926266 0.95421808 2.29430541 1.91352045 3.4375 2.875 C4.07558594 3.40867188 4.71367187 3.94234375 5.37109375 4.4921875 C7 6 7 6 8 8 C6.02 8.33 4.04 8.66 2 9 C2 8.01 2 7.02 2 6 C1.01 5.67 0.02 5.34 -1 5 C-0.67 3.35 -0.34 1.7 0 0 Z " fill="#167F18" transform="translate(401,178)"/>
<path d="M0 0 C0.66 0 1.32 0 2 0 C2.46857388 6.24765167 0.78480032 11.35585138 -2.6875 16.5 C-3.120625 16.995 -3.55375 17.49 -4 18 C-3.31195504 11.80759538 -1.71951285 5.98044406 0 0 Z " fill="#C2EAC2" transform="translate(441,330)"/>
<path d="M0 0 C0.33 0 0.66 0 1 0 C0.85892253 1.45880109 0.71197585 2.91703551 0.5625 4.375 C0.48128906 5.18710938 0.40007812 5.99921875 0.31640625 6.8359375 C0 9 0 9 -1 11 C-2.97522846 12.04808041 -4.97481509 13.0520411 -7 14 C-5.23570801 9.02790438 -2.6060834 4.56561939 0 0 Z " fill="#238224" transform="translate(141,204)"/>
<path d="M0 0 C2.97 0.495 2.97 0.495 6 1 C6.33 2.98 6.66 4.96 7 7 C6.34 6.731875 5.68 6.46375 5 6.1875 C1.35060933 4.74294953 -2.32245433 3.37128822 -6 2 C-6 1.67 -6 1.34 -6 1 C-4.02 1 -2.04 1 0 1 C0 0.67 0 0.34 0 0 Z " fill="#E6F4E1" transform="translate(350,137)"/>
<path d="M0 0 C0 0.66 0 1.32 0 2 C2.49064888 2.68707555 4.37886292 3 7 3 C7.33 3.99 7.66 4.98 8 6 C6.26982492 5.54548816 4.54090123 5.08621143 2.8125 4.625 C1.84957031 4.36976563 0.88664062 4.11453125 -0.10546875 3.8515625 C-2.82210207 3.05233704 -5.39137175 2.0968638 -8 1 C-4.93251126 -0.86240388 -3.40254489 -1.2151946 0 0 Z " fill="#C6ECC4" transform="translate(336,132)"/>
<path d="M0 0 C2.60608273 2.5162178 4.89381685 5.05134359 7 8 C6.67 8.66 6.34 9.32 6 10 C5.34 9.67 4.68 9.34 4 9 C3.67 9.66 3.34 10.32 3 11 C0.84694043 7.14243493 -0.39253254 4.44870215 0 0 Z " fill="#1D831F" transform="translate(411,189)"/>
<path d="M0 0 C0.99 0.33 1.98 0.66 3 1 C2.67 1.66 2.34 2.32 2 3 C1.401875 3.12375 0.80375 3.2475 0.1875 3.375 C-2.18241431 3.85516047 -2.18241431 3.85516047 -3.9375 6 C-6.30854261 8.29919283 -7.77231982 8.64136887 -11 9 C-7.61791761 5.41897159 -4.30323854 2.43226526 0 0 Z " fill="#238028" transform="translate(195,150)"/>
<path d="M0 0 C4.87310005 0.64598366 9.63131839 1.50971736 14.4375 2.5625 C15.67371094 2.83191406 16.90992188 3.10132813 18.18359375 3.37890625 C19.57771484 3.68634766 19.57771484 3.68634766 21 4 C21 4.33 21 4.66 21 5 C18.88646234 4.76137478 16.77302964 4.52178077 14.66015625 4.27734375 C12.85870435 4.08952718 11.05329836 3.93688656 9.24609375 3.81640625 C8.36050781 3.75324219 7.47492188 3.69007813 6.5625 3.625 C5.73878906 3.57601562 4.91507812 3.52703125 4.06640625 3.4765625 C2 3 2 3 0 0 Z " fill="#2C872F" transform="translate(307,128)"/>
<path d="M0 0 C0.66 0.33 1.32 0.66 2 1 C1.67 2.65 1.34 4.3 1 6 C-2.3 6 -5.6 6 -9 6 C-6.05304526 3.05304526 -3.7949346 1.61486579 0 0 Z " fill="#218221" transform="translate(206,144)"/>
<path d="M0 0 C-3.1622274 1.73169596 -6.26742722 2.7128976 -9.75 3.625 C-10.73484375 3.88539063 -11.7196875 4.14578125 -12.734375 4.4140625 C-13.85585937 4.70410156 -13.85585937 4.70410156 -15 5 C-15.33 4.34 -15.66 3.68 -16 3 C-10.62669111 -0.39366878 -6.13053511 -0.32712342 0 0 Z " fill="#D9F6D5" transform="translate(240,131)"/>
<path d="M0 0 C3.79049707 1.42749981 7.27122456 3.16236542 10.8125 5.125 C12.27623047 5.93324219 12.27623047 5.93324219 13.76953125 6.7578125 C14.50558594 7.16773438 15.24164063 7.57765625 16 8 C14.125 8.5859375 14.125 8.5859375 12 9 C10 7.625 10 7.625 8 6 C5.85266073 5.29485154 5.85266073 5.29485154 4 5 C4 4.34 4 3.68 4 3 C2.68 2.67 1.36 2.34 0 2 C0 1.34 0 0.68 0 0 Z " fill="#1F7B23" transform="translate(352,142)"/>
<path d="M0 0 C-2.12232979 1.17176518 -4.24757791 2.33754785 -6.375 3.5 C-6.97828125 3.83386719 -7.5815625 4.16773438 -8.203125 4.51171875 C-12.7734375 7 -12.7734375 7 -15 7 C-15 6.34 -15 5.68 -15 5 C-14.34 5 -13.68 5 -13 5 C-13 4.34 -13 3.68 -13 3 C-11.40084119 2.30093058 -9.79544955 1.61610532 -8.1875 0.9375 C-7.29417969 0.55464844 -6.40085938 0.17179688 -5.48046875 -0.22265625 C-3 -1 -3 -1 0 0 Z " fill="#D8F7D9" transform="translate(210,143)"/>
<path d="M0 0 C3.42724441 5.14086661 3.1015597 10.00797796 3 16 C2.67 14.68 2.34 13.36 2 12 C1.34 12 0.68 12 0 12 C0 8.04 0 4.08 0 0 Z " fill="#358732" transform="translate(441,250)"/>
<path d="M0 0 C0.33 0.66 0.66 1.32 1 2 C1.66 2.33 2.32 2.66 3 3 C2.01 3 1.02 3 0 3 C0 3.66 0 4.32 0 5 C-0.99 5.33 -1.98 5.66 -3 6 C-4.21869929 8.50447516 -4.21869929 8.50447516 -5 11 C-5.99 10.34 -6.98 9.68 -8 9 C-5.36 6.03 -2.72 3.06 0 0 Z " fill="#318B33" transform="translate(161,178)"/>
<path d="M0 0 C1.41805831 0.28482368 2.83440379 0.57818144 4.25 0.875 C5.03890625 1.03742188 5.8278125 1.19984375 6.640625 1.3671875 C8.96831144 1.99150075 10.89031952 2.84838542 13 4 C11.39620659 4.05416188 9.79188594 4.09286638 8.1875 4.125 C7.29417969 4.14820313 6.40085938 4.17140625 5.48046875 4.1953125 C3 4 3 4 0 2 C0 1.34 0 0.68 0 0 Z " fill="#DBF7D9" transform="translate(231,448)"/>
<path d="M0 0 C0.99 0.33 1.98 0.66 3 1 C2.01 1.495 2.01 1.495 1 2 C1 2.66 1 3.32 1 4 C-1.30276574 6.21747812 -2.52480092 6.96760006 -5.75 7.1875 C-6.86375 7.0946875 -6.86375 7.0946875 -8 7 C-3.04087193 1.86376022 -3.04087193 1.86376022 0 0 Z " fill="#D6F2D3" transform="translate(382,421)"/>
<path d="M0 0 C0.66 0.33 1.32 0.66 2 1 C0.68 5.62 -0.64 10.24 -2 15 C-2.33 15 -2.66 15 -3 15 C-2.88623383 12.87436897 -2.75864369 10.7494739 -2.625 8.625 C-2.55539063 7.44164062 -2.48578125 6.25828125 -2.4140625 5.0390625 C-2 2 -2 2 0 0 Z " fill="#CFF5D3" transform="translate(126,231)"/>
<path d="M0 0 C2.25245881 2.68841859 3.88213958 4.64641875 5 8 C2.69 7.67 0.38 7.34 -2 7 C-1.125 1.125 -1.125 1.125 0 0 Z " fill="#178018" transform="translate(419,200)"/>
<path d="M0 0 C1.66611905 -0.042721 3.33382885 -0.04063832 5 0 C6 1 6 1 6.0625 4.5625 C6.041875 5.696875 6.02125 6.83125 6 8 C1.125 3.375 1.125 3.375 0 0 Z " fill="#DCF8DF" transform="translate(414,192)"/>
<path d="M0 0 C2.97 0.33 5.94 0.66 9 1 C5.71299843 2.64350079 3.52069985 3.41321669 0 4 C0 2.68 0 1.36 0 0 Z " fill="#1F8622" transform="translate(331,444)"/>
<path d="M0 0 C3.8063457 0.67170806 7.35206816 1.72746564 11 3 C11 4.32 11 5.64 11 7 C6.89188572 5.55007731 3.53144334 3.54592427 0 1 C0 0.67 0 0.34 0 0 Z " fill="#2D872F" transform="translate(186,425)"/>
<path d="M0 0 C0.66 0.33 1.32 0.66 2 1 C-0.475 6.94 -0.475 6.94 -3 13 C-3.33 13 -3.66 13 -4 13 C-4.5497272 7.36529617 -2.95047835 4.61012242 0 0 Z " fill="#DAF8DD" transform="translate(132,217)"/>
<path d="M0 0 C3.98175544 2.10148204 6.35039045 4.36905358 9 8 C8.01 8.495 8.01 8.495 7 9 C6.67 8.34 6.34 7.68 6 7 C5.01 6.67 4.02 6.34 3 6 C3 5.01 3 4.02 3 3 C1.35 2.67 -0.3 2.34 -2 2 C-1.34 1.34 -0.68 0.68 0 0 Z " fill="#228525" transform="translate(384,162)"/>
<path d="M0 0 C0.33 0 0.66 0 1 0 C1.05437607 1.58294782 1.09296271 3.16644256 1.125 4.75 C1.14820312 5.63171875 1.17140625 6.5134375 1.1953125 7.421875 C0.99139502 10.1135858 0.36551721 11.69904974 -1 14 C-2.33500455 8.65998179 -1.512545 5.16044765 0 0 Z " fill="#2F8730" transform="translate(122,248)"/>
<path d="M0 0 C0.66 0.99 1.32 1.98 2 3 C1.01 4.485 1.01 4.485 0 6 C-0.66 6 -1.32 6 -2 6 C-2 6.66 -2 7.32 -2 8 C-2.66 8 -3.32 8 -4 8 C-4 8.66 -4 9.32 -4 10 C-4.66 9.67 -5.32 9.34 -6 9 C-4.02 6.03 -2.04 3.06 0 0 Z " fill="#247F26" transform="translate(148,194)"/>
<path d="M0 0 C1.32 0 2.64 0 4 0 C4.33 0.66 4.66 1.32 5 2 C7.02463255 2.65213292 7.02463255 2.65213292 9 3 C9 3.99 9 4.98 9 6 C9.66 6 10.32 6 11 6 C10.67 6.66 10.34 7.32 10 8 C8.33055479 6.85821872 6.6645052 5.71147095 5 4.5625 C4.071875 3.92441406 3.14375 3.28632813 2.1875 2.62890625 C1.465625 2.09136719 0.74375 1.55382812 0 1 C0 0.67 0 0.34 0 0 Z " fill="#D3EFCC" transform="translate(373,153)"/>
<path d="M0 0 C0.66 0.33 1.32 0.66 2 1 C0.02 3.97 -1.96 6.94 -4 10 C-6 7 -6 7 -6 5 C-5.360625 4.896875 -4.72125 4.79375 -4.0625 4.6875 C-3.381875 4.460625 -2.70125 4.23375 -2 4 C-1.67 3.01 -1.34 2.02 -1 1 C-0.67 0.67 -0.34 0.34 0 0 Z " fill="#DFF4D8" transform="translate(155,182)"/>
<path d="M0 0 C0.33 1.32 0.66 2.64 1 4 C0.195625 4.268125 -0.60875 4.53625 -1.4375 4.8125 C-2.283125 5.204375 -3.12875 5.59625 -4 6 C-4.33 6.99 -4.66 7.98 -5 9 C-5.66 8.34 -6.32 7.68 -7 7 C-4.69 4.69 -2.38 2.38 0 0 Z " fill="#248528" transform="translate(169,170)"/>
<path d="M0 0 C1.32 0.66 2.64 1.32 4 2 C4 3.65 4 5.3 4 7 C1.69 5.35 -0.62 3.7 -3 2 C-2.01 1.34 -1.02 0.68 0 0 Z " fill="#E8F7E4" transform="translate(387,160)"/>
<path d="M0 0 C0.99 0.33 1.98 0.66 3 1 C2.67 1.66 2.34 2.32 2 3 C3.32 3.33 4.64 3.66 6 4 C5.67 4.66 5.34 5.32 5 6 C0.545 4.02 0.545 4.02 -4 2 C-2.68 1.34 -1.36 0.68 0 0 Z " fill="#2C892D" transform="translate(212,437)"/>
<path d="M0 0 C3.93673644 1.31224548 6.22719294 2.91910327 9 6 C8.67 6.66 8.34 7.32 8 8 C5.5 6.625 5.5 6.625 3 5 C3 4.34 3 3.68 3 3 C2.01 2.67 1.02 2.34 0 2 C0 1.34 0 0.68 0 0 Z " fill="#ECFAE4" transform="translate(192,430)"/>
<path d="M0 0 C2 1 2 1 2.8515625 3.06640625 C3.10679688 3.89011719 3.36203125 4.71382813 3.625 5.5625 C3.88539062 6.38878906 4.14578125 7.21507812 4.4140625 8.06640625 C4.60742188 8.70449219 4.80078125 9.34257812 5 10 C4.01 9.67 3.02 9.34 2 9 C1.67 8.01 1.34 7.02 1 6 C0.34 5.67 -0.32 5.34 -1 5 C-0.67 3.35 -0.34 1.7 0 0 Z " fill="#D5F4D4" transform="translate(123,340)"/>
<path d="M0 0 C0.99 0 1.98 0 3 0 C5.125 6.625 5.125 6.625 4 10 C3.32845067 8.71086513 2.66291141 7.41859796 2 6.125 C1.62875 5.40570313 1.2575 4.68640625 0.875 3.9453125 C0 2 0 2 0 0 Z " fill="#2B8529" transform="translate(132,359)"/>
<path d="M0 0 C-0.69941596 3.14737182 -1.76078698 6.02588876 -3 9 C-3.33 9 -3.66 9 -4 9 C-4 6.36 -4 3.72 -4 1 C-2 0 -2 0 0 0 Z " fill="#1D7D1E" transform="translate(432,357)"/>
<path d="M0 0 C2.475 0.495 2.475 0.495 5 1 C5.103125 1.639375 5.20625 2.27875 5.3125 2.9375 C5.539375 3.618125 5.76625 4.29875 6 5 C6.99 5.33 7.98 5.66 9 6 C8.67 6.99 8.34 7.98 8 9 C5.06799526 6.14723863 2.35684596 3.34920216 0 0 Z " fill="#CFEEC5" transform="translate(391,167)"/>
<path d="M0 0 C-3.20336822 2.83374881 -5.78087253 3.5205537 -10 4 C-9.67 3.01 -9.34 2.02 -9 1 C-6.03421164 -0.16513114 -3.15436364 -0.08762121 0 0 Z " fill="#3A913A" transform="translate(352,440)"/>
<path d="M0 0 C1.98 0.66 3.96 1.32 6 2 C5.67 3.65 5.34 5.3 5 7 C2.47411298 4.63707344 1.11179163 3.33537489 0 0 Z " fill="#218122" transform="translate(142,378)"/>
<path d="M0 0 C3.5786304 1.65167557 6.74820188 3.78286492 10 6 C9.01 6.495 9.01 6.495 8 7 C7.01 6.67 6.02 6.34 5 6 C5 5.34 5 4.68 5 4 C4.360625 3.896875 3.72125 3.79375 3.0625 3.6875 C2.381875 3.460625 1.70125 3.23375 1 3 C0.67 2.01 0.34 1.02 0 0 Z " fill="#238123" transform="translate(374,155)"/>
<path d="M0 0 C3.465 1.98 3.465 1.98 7 4 C5.02 4.99 5.02 4.99 3 6 C0 2.25 0 2.25 0 0 Z " fill="#E6FAE3" transform="translate(185,425)"/>
<path d="M0 0 C1.98 1.65 3.96 3.3 6 5 C5.01 5.495 5.01 5.495 4 6 C3.67 6.99 3.34 7.98 3 9 C1.76078698 6.02588876 0.69941596 3.14737182 0 0 Z " fill="#DEF5DF" transform="translate(153,395)"/>
<path d="M0 0 C0.33 0 0.66 0 1 0 C1.25 2.3125 1.25 2.3125 1 5 C-1 6.8125 -1 6.8125 -3 8 C-3.66 7.67 -4.32 7.34 -5 7 C-4.19152271 5.83054208 -3.37810888 4.66449539 -2.5625 3.5 C-2.11003906 2.8503125 -1.65757812 2.200625 -1.19140625 1.53125 C-0.79824219 1.0259375 -0.40507812 0.520625 0 0 Z " fill="#C6E9C5" transform="translate(414,388)"/>
<path d="M0 0 C1.32 0.99 2.64 1.98 4 3 C3.67 3.66 3.34 4.32 3 5 C2.34 4.67 1.68 4.34 1 4 C1 4.99 1 5.98 1 7 C0.34 7 -0.32 7 -1 7 C-0.67 4.69 -0.34 2.38 0 0 Z " fill="#DAF3D6" transform="translate(145,384)"/>
<path d="M0 0 C0.33 1.32 0.66 2.64 1 4 C-1.9719385 2.87548273 -4.33440687 1.77706209 -7 0 C-3.86650268 -1.04449911 -3.01031744 -0.93423645 0 0 Z " fill="#D5F4D5" transform="translate(356,140)"/>
</svg>
