<?xml version="1.0" encoding="iso-8859-1"?>
<!-- Uploaded to: SVG Repo, www.svgrepo.com, Generator: SVG Repo Mixer Tools -->
<svg fill="#FFF" height="800px" width="800px" version="1.1" id="Layer_1" xmlns="http://www.w3.org/2000/svg" xmlns:xlink="http://www.w3.org/1999/xlink" 
	 viewBox="0 0 512 512" xml:space="preserve">
<g>
	<g>
		<path d="M332.075,434.445H179.94c-34.377,0-62.343,27.968-62.343,62.344v15.209h276.821v-15.209
			C394.418,462.413,366.451,434.445,332.075,434.445z"/>
	</g>
</g>
<g>
	<g>
		<path d="M496.181,221.441L496.181,221.441L437.234,99.856h34.078V69.438H291.978V35.973c0-19.835-16.136-35.971-35.971-35.971
			s-35.971,16.136-35.971,35.971v33.465H40.688v30.417h34.077L15.82,221.441H0v29.067c0,48.919,39.798,88.717,88.717,88.717
			s88.717-39.798,88.717-88.717v-29.067h-15.82L102.668,99.856h117.368v304.17h71.942V99.856h117.354l-58.946,121.586h-15.82v29.067
			c0,48.919,39.798,88.717,88.717,88.717S512,299.427,512,250.508v-29.067H496.181z M127.81,221.44H49.624l39.093-80.637
			L127.81,221.44z M384.19,221.44l39.093-80.637l39.094,80.637H384.19z"/>
	</g>
</g>
</svg>